<svg width="272" height="285" viewBox="0 0 272 285" fill="none" xmlns="http://www.w3.org/2000/svg">
  <g clip-path="url(#clip0_102_2)">
    <path d="M71.1 136.1C70.3 134.8 69.4 134 68.6 133.8C67.6 133.4 66.6 133.4 65.7 133.6C64.7 133.9 63.8 134.4 63 135.1C62.1 136 61 137.8 59.9 140.4C59.2 139 58 138.1 56.3 137.7C54.9 137.3 53.3 137.5 51.7 138.2C49.3 139.4 47.5 141.8 46.4 145.3C46.3 144.1 45.7 143 44.5 142.1C43.5 141.2 42.3 140.7 41 140.7C39.8 140.8 38.7 141.3 37.7 142.2C36.7 143.2 36.1 144.3 36.1 145.5C35.6 144.8 34.9 144.5 33.8 144.4C33 144.3 32.2 144.4 31.5 144.6C30.2 145.2 29 146.4 27.8 148.2C26.9 149.5 26.3 150.3 25.8 150.5C25.5 150.9 25 151.2 24.4 151.5C23.6 151.7 23 151.9 22.5 152.1C21.2 152.6 20.2 153.5 19.3 154.7C18.5 155.9 18 157.3 17.8 158.6C15.5 158.5 13.5 159.3 12 161.1C10.3 163 9.7 165.1 10.2 167.5C8.9 167.4 7.8 168 6.9 169C6.1 169.9 5.6 171 5.2 172.3C4.9 174.4 5.5 176.8 7 179.5C5.2 180.4 4.1 182 3.4 184.3C3.1 186.4 3.5 188.3 4.6 190C3.3 190.8 2.3 192 1.8 193.6C1.3 195.4 1.4 196.9 2 198.3C0.999997 200.2 0.799997 202.4 1.4 204.7C1.8 207.1 3 208.8 4.9 209.9C4.1 210.5 3.4 211.2 2.8 212.1C2.5 212.9 2.4 213.8 2.5 214.7C2.4 215.7 2.8 216.6 3.4 217.3C4 218.2 4.7 218.8 5.6 219.1C4.6 219.7 3.9 220.5 3.4 221.7C2.8 223 2.8 224.2 3.3 225.3C3.6 226.4 4.1 227.3 4.9 228C5.8 228.7 6.9 229.1 8.1 229.1C7.9 230.6 8.1 232.1 8.6 233.4C9.3 234.8 10.1 235.9 11.2 236.7C12.5 237.5 13.9 237.9 15.5 237.9C16.1 238 16.5 238 16.7 237.7L16.8 237.9C17.4 241.6 17.8 244.8 18.1 247.3C18.3 249.1 18.4 250.2 18.5 250.6L20.7 259C20.9 259.6 21 260 21.1 260.2L22.2 270.2C22.4 271.6 22.2 272.6 21.8 273.1C21.6 273.5 21.5 273.7 21.3 273.9C21.3 274.1 21.3 274.2 21.4 274.4C21.5 275.5 21.8 276.3 22.2 276.6C22.6 277.1 23.2 277.5 24.1 277.7C25.1 278 26.7 278 28.7 277.7C29.9 277.6 30.9 277.4 31.6 277.1H31.8C32.3 277.3 32.8 277.2 33.3 276.9C33.7 276.5 34 276.2 34.3 275.8C34.6 275.3 34.7 274.8 34.7 274.4C34.6 274.1 34.5 273.6 34.3 272.9C34 272.2 33.7 271.7 33.5 271.4C33.3 270.8 33.1 269.9 33 268.6C32.6 265.3 32.2 262.1 31.6 258.9C31.8 258.8 32.2 258.7 32.7 258.7C32.4 257.9 32.2 257.3 32 257C31.9 256.7 31.9 256.4 31.9 256L31.6 253.4C31.3 253 31.1 252.7 31.1 252.4C30.9 252.1 30.8 251.8 30.8 251.5C31 251.8 31.2 252.1 31.3 252.4L37.3 257.6L38.4 258.7C38.6 259 38.9 259.2 39.3 259.3C39.5 259.7 39.7 259.9 39.8 260C40.3 260.6 40.7 261 41 261.2C41.4 261.5 41.8 261.7 42.1 261.9C43.9 263.6 45.6 264.8 47.2 265.5C47.6 265.6 48 265.8 48.5 266.1C49.1 266 49.8 266 50.7 266.1C52.5 266.4 55.2 267.1 58.8 268.1C60.9 268.6 63.7 268.8 67.2 269C70.6 269.1 76.3 267.9 84.4 265.4C92.4 262.7 98.3 258.6 102.1 253C104 250.1 105.5 246.6 106.6 242.7L106.7 242.9C106.6 243.6 106.5 244.7 106.5 246.2C106.6 246.8 106.7 247.7 106.8 248.8C107 250.2 107.1 251.2 107.1 251.7C106.9 252.2 106.9 252.8 106.9 253.5C106.8 254.2 106.8 254.6 106.8 254.9C106.9 255.6 107.2 256.1 107.6 256.6C108 256.9 108.3 257.2 108.6 257.5C108.9 257.8 109.1 258 109.4 258.4C110.1 258.4 110.9 258.3 112 258.1C112.8 258 114 257.6 115.5 257C116 256.9 116.7 256.9 117.6 256.8C118.6 256.5 119.3 256.3 119.8 256C121 255.2 121.5 254.2 121.3 253.1C121.5 252.5 121.3 252 120.9 251.6C120.5 250.9 120 250.6 119.4 250.5V250.3C119 246.6 118.4 242.1 117.6 236.6C117.6 236.4 117.6 236.2 117.5 235.9C117.5 235.7 117.6 235.4 117.7 235.1C118 233.8 118 231.8 117.9 229.2L117.8 226.5L119 226.2C119.4 225.8 119.9 225.1 120.5 224.1C121.8 221.5 122.2 219.3 121.7 217.4C124.2 216.7 126.2 215.9 127.6 214.8C128 213.6 128.3 212.2 128.4 210.5C128.6 209.4 128.5 208.5 128.2 207.8L127.7 207.3C127.6 207 127.5 206.7 127.2 206.3C127.2 206 127.3 205.7 127.4 205.3C127 205 126.5 204.8 126 204.5C127.7 202.5 128.5 200.9 128.3 199.5C128.2 199.1 128.1 198.5 127.8 197.6C127.3 196.5 126.8 195.9 126.3 195.7C126.3 195.5 126.2 195.5 126 195.5C126.2 195.3 126.4 195 126.5 194.6C127.4 191.9 127.3 189.2 126 186.4C124.7 183.5 122.8 181.4 120.2 180.1C120.8 177.3 120.9 175 120.4 173.3C120.1 172.2 119.6 171.2 118.9 170.3C117.9 169.2 116.9 168.6 116 168.4C116.3 166.6 115.7 164.9 114.2 163.4C112.5 161.7 110.8 161 108.9 161.4C109.3 159.3 108.6 157.3 107 155.6C105.3 153.8 103.5 153.1 101.4 153.3C101.7 152.3 101.6 151.2 101.1 150.1C100.7 149.2 100.1 148.5 99.3 147.9C98.4 147.2 97.4 146.8 96.5 146.7C95.4 146.6 94.4 146.8 93.6 147.2C93.3 144.3 92.4 142.2 91 141C90.2 140 89.2 139.5 87.9 139.3C86.7 139.1 85.7 139.4 84.7 140.1C84.4 138.9 83.8 137.9 82.9 136.9C81.8 136.1 80.7 135.6 79.6 135.4C78.2 135.2 76.9 135.5 75.7 136C74.7 136.6 73.8 137.4 73.1 138.5C72.2 137.5 71.6 136.6 71.1 136.1M64.1 183.1H64.3C64.6 183.7 65 184.3 65.6 184.7C66.5 185.6 67.5 186.2 68.5 186.5C69.7 187.1 71.2 187.2 73 187C74.9 186.8 76.8 186.3 78.7 185.6C78.8 185.4 79 185.3 79.2 185.3L80.1 186.7C81.1 188.2 82 189.1 82.8 189.3C83.6 189.9 84.6 190.2 85.8 190.2C87.3 190 88.6 189.7 89.7 189.3C90 189.4 90.3 189.6 90.6 190C91.1 191.3 91.7 192.7 92.3 194.2C93.2 196.1 94.1 197.2 95.1 197.5C95.6 197.8 96.5 198 97.9 198C98.1 198.1 98.3 198.2 98.8 198.4C98.9 199 99 199.9 99.1 201C99.5 202.1 100.1 203.1 101 203.9C101 204.3 101.1 204.6 101.3 204.9L101.5 208.2C101.7 209.5 101.8 210.7 101.9 211.6L96.2 221.6C95.6 222.5 95.2 223.1 95.1 223.5C95 223.9 95 224.3 95 224.6C94.8 225 94.7 225.3 94.5 225.7C94.1 226.3 93.9 226.8 94 227.3C94.1 227.6 94.3 227.9 94.8 228.1C95.2 228.2 95.5 228.2 95.8 227.9C96 227.9 96.3 227.6 97 227C97.2 226.7 97.3 226.6 97.5 226.6C99.1 225.4 100.9 224 102.8 222.4C102.8 222.6 102.7 222.8 102.6 223C102.7 223.7 102.8 224.7 102.9 225.9L103.1 227.3C103.2 227.1 103.4 227 103.6 226.8C103.5 227.7 103.4 228.5 103.4 229.4C103.3 230.1 103.2 230.8 103.2 231.6C103.1 232.1 103 232.6 102.8 233.1C102.8 233.6 102.6 234.1 102.3 234.6C102.2 235.1 102 235.6 101.8 236.3C101.3 238.2 100.9 239.6 100.5 240.3C100.1 241 99.7 241.7 99.3 242.5C98.1 246.1 96.4 249 94.3 251.3C91.1 254.9 86.6 257.4 80.7 258.8C78.3 259.4 75.6 259.9 72.8 260.2C70.8 260.4 68.2 260.5 64.8 260.6C60.4 260.7 57.2 260.6 55.3 260.2C52.9 259.6 50.5 258.6 48.1 257.1C46.3 256 44 254.3 41.4 252.1C39.3 250.6 37.6 249.3 36.4 248.1C36 247.6 35.7 247.2 35.5 246.9C35.1 246.6 34.8 246.4 34.6 246.4C34 245.9 33.5 245.5 33 245C33 244.8 32.9 244.6 32.6 244.1L31.7 242.8C31.9 242.7 32 242.8 32.2 242.9C32 242.6 31.8 242.3 31.6 241.8C31.1 241 30.8 240 30.5 238.9C30.3 237.7 30.2 236.6 30 235.7C29.8 235.2 29.5 234.5 29.1 233.5C29 233.2 28.9 232.9 28.8 232.7C29.7 233 30.8 233.3 32.1 233.6C34.1 234.2 35.2 234.5 35.6 234.6L38 235.8C39 236.2 39.8 236.2 40.4 235.9C40.7 235.6 40.9 235.4 40.9 235.3C41.3 235.2 41.5 235.3 41.7 235.5C42 234.6 41.4 233.6 39.9 232.6C36.9 230.2 34.2 228.2 31.8 226.8C31.6 226.6 31.5 226.4 31.5 226.3C31.3 226.1 30.9 225.8 30.2 225.1C28.9 223.8 27.7 222.2 26.5 220.4C26.2 216.5 26.2 212.6 26.3 208.7C26.4 206.6 26.5 204.6 26.5 202.7C29.2 202.6 31.5 201.6 33.3 199.6C34.1 198.7 34.8 197.6 35.3 196.3C35.7 195.1 35.8 193.8 35.7 192.6L36.3 192.1C37 191.8 37.8 191.7 38.7 191.8C40 191.8 41 191.6 41.6 191.3C42.4 190.8 42.9 190.1 43.3 189.1C43.5 188.8 43.6 188.4 43.7 187.7C44.2 187.6 44.6 187.5 44.9 187.3H45.1C45.3 187.2 45.4 187.2 45.6 187.2C46.3 187.3 47 187.3 47.8 187.2C49 187.2 50.2 186.9 51.3 186.3C51.7 186.1 52.2 185.8 52.8 185.4C53.4 185.1 53.8 185 54.1 185C54.5 184.9 54.9 185 55.3 185.1C55.6 185.3 56 185.4 56.6 185.5C57.9 186 59.2 185.8 60.5 184.8C61 184.4 61.4 184.1 61.6 183.9C62 183.7 62.5 183.5 63 183.2C62.8 183 63.3 183 64.1 183.1M14.2 198.6L14 198.8V198.6H14.2ZM12.5 211.7C12.6 212.1 12.6 212.3 12.6 212.6C12.4 212.5 12.3 212.4 12.1 212.4C12.2 212.2 12.3 211.9 12.5 211.7M23.5 236.6C23.8 236.5 24.1 236.6 24.5 236.8C25.3 237.2 25.8 238.3 26 240.1L27.9 258.2C28.1 258.4 28.3 258.5 28.5 258.4C28.4 260.8 28.5 264.2 28.9 268.5C28.9 270 29 271.2 29.1 272.1C27.8 272.4 27 272.6 26.6 272.6L25.4 266.2C25.2 264.4 25.1 263.2 25 262.3C24.9 260.2 24.8 259 24.8 258.9L24.3 255.9C24 255.2 23.9 253.9 23.8 251.9C23.7 249.5 23.4 247.1 22.8 244.7C22.7 244.2 22.6 244 22.4 243.8C22.3 243.6 22.2 243.6 22.1 243.6L21.7 240.1C21.5 238.7 21.8 237.7 22.4 237.1C22.8 236.9 23.2 236.6 23.5 236.6M111.8 219.9C111.9 220.9 111.9 222 111.9 223.2C111.6 223.6 111.6 224.1 111.7 224.7C111.5 225.4 111.7 225.9 112.1 226.2C112.4 228.8 112.5 231.8 112.5 235.3C112.9 241.4 113.3 246.6 113.7 250.8C113.8 251.1 113.9 251.3 114 251.5L112.4 251.7L111.2 237.5C110.8 233.9 110.3 230.4 109.5 226.9C109.4 226.3 109.3 225.9 109.1 225.7L108.6 220.4C108.3 219 108.4 217.9 109.1 217.4C109.3 217 109.7 216.8 110.3 216.8C110.7 216.7 110.9 216.9 111.2 217.2C111.4 217.4 111.5 217.7 111.7 218.3C111.6 218.7 111.7 219.3 111.8 219.9ZM80.4 250.8C82.4 249.2 84.2 247 85.9 244.2C86.9 242.4 88.2 239.7 89.8 236.2C90.8 233.6 90.7 231.9 89.3 231.1C88.8 230.8 87.9 230.9 86.6 231.2C75.2 234 63.5 236 51.4 237.2C49.1 237.5 47.7 238 47.1 238.9C46.5 240 46.5 241.2 47 242.6C47.5 243.7 48.4 244.8 49.7 245.9L54.8 250.7C56.8 252.6 58.5 253.8 59.9 254.6C62.1 255.8 64.9 256.2 68.3 255.8C73.2 255.4 77.2 253.7 80.4 250.8ZM81 243C79.8 244.9 77.7 246.3 74.7 247.3C72.8 248.2 71 248.6 69.2 248.7C66.3 248.9 63.5 248.1 60.9 246.5C58.3 244.8 56.4 242.6 55.2 239.8C60.6 239.5 65.9 238.8 71.1 237.7C75.5 236.9 77.8 236.5 77.9 236.5C80.5 236.2 82.7 236.1 84.6 236.2L82.2 240.6C81.7 242 81.2 242.8 81 243M84.9 204.4C84.2 204.5 83.5 204.5 82.8 204.6C81.5 204.8 80.6 204.9 80.1 204.9C78.2 205.1 76.8 205.5 76.1 206C75.5 206.4 74.9 207.1 74.4 208.1C73.7 209.4 73.3 210.9 73.4 212.6C73.4 214.3 73.8 215.8 74.6 217.2C74.8 217.5 75 217.7 75.1 217.8C75.5 217.9 75.7 217.9 75.9 217.7L76.1 217.2C76.2 216.2 76.6 215.6 77.6 215.3C77.8 215.3 78.7 215.2 80.3 215C81.4 214.9 83 214.3 85.2 213.2L88.7 211.7C89.6 211.4 90.3 211 90.8 210.5C91.4 209.7 91.7 208.8 91.6 207.9C91.3 207.2 90.9 206.5 90.3 205.7C89.2 204.6 87.6 204.2 85.6 204.3C85.2 204.4 85 204.4 84.9 204.4M43.2 209.6C42 209.8 41 209.9 40.3 209.9C39.2 210 38.3 210.3 37.7 210.7C36.8 211.1 36 211.8 35.5 212.7C35 213.7 34.9 214.6 35.2 215.6C35.5 216.8 36.3 217.6 37.6 218C38.5 218.5 39.6 218.7 41.1 218.7C44.5 219 47.8 218.6 51 217.8C52.2 217.5 53.1 217.6 53.7 218.1C53.9 218.2 54.1 218.6 54.6 219.3C54.9 220 55.2 220.4 55.5 220.5C56.1 220.1 56.6 219.6 57 219C57.2 218.3 57.2 217.7 57 217C56.8 215.8 56.1 214.4 54.9 213.1C53 211.4 51 210.2 48.9 209.6C47.8 209.2 46 209.3 43.2 209.6M108.6 46.4C108 44 107.5 42 106.9 40.2C105.6 37.1 104 35.4 102.3 35L102 34.9C100.2 32.8 98.3 30.8 96.3 29C95.6 28.4 94.8 27.8 93.8 27.2C93 26.2 92.1 25.2 91.1 24.2C88.1 21.2 85.3 18.9 82.8 17.2C79.6 15.1 76.3 13.8 73 13.3C70.6 13 67.6 13.1 64 13.7C61.7 14.1 58.6 14.8 54.6 15.8C48.6 17.2 43.9 18.8 40.3 20.4C36.5 21.9 33.3 23.9 30.8 26.4L30.6 26.3C30.2 26.5 29.8 26.7 29.2 26.9C25.1 28.4 21.1 31.3 17.1 35.5C15.9 36.7 15.1 37.9 14.8 38.9C14.6 39.1 14.4 39.8 14.3 41C14.2 42.1 14 42.9 13.8 43.5C13.5 44 13.2 44.6 12.8 45.3C12.2 46.1 11.8 46.7 11.6 46.9C11.1 47.8 10.8 49.3 10.7 51.2C10.6 53.4 10.5 54.8 10.4 55.6C10.1 56.5 9.6 57.5 8.9 58.8C8.8 59.3 8.7 59.7 8.5 60C6.6 60.6 4.8 62.7 3.1 66.3C2.1 68.4 1.5 69.9 1.2 71C0.599997 72.8 0.199997 74.4 0.199997 75.9C0.0999973 77.8 0.699997 80.6 1.8 84.2C2.4 86.1 2.9 87.5 3.2 88.5C4 90.1 5 91.2 6.2 91.9C7.5 93 9.3 93.5 11.5 93.4C12.7 93.4 14.2 93.2 15.9 92.8L15.8 93C15.7 96.2 16.1 99.2 16.7 102.1C17.5 105.3 18.9 108 20.9 110.1C22.5 111.7 24.5 113.1 26.9 114.4C29.4 115.7 32.4 116.9 35.9 117.7C36.3 117.9 43 119.2 56.2 121.8C78.8 123.8 90.2 124.5 90.3 124C92.1 123.4 93.8 122.6 95.5 121.7C95.6 121.4 95.6 121.1 95.6 120.9C95.7 120.6 95.8 120.3 96.1 119.9L96.7 118.7C97 118.3 97.2 117.7 97.3 116.8C98 114.1 98.6 112.1 98.9 110.8C99.5 109 99.9 107.5 100.1 106.1C99.7 104.7 99.6 103.2 99.6 101.7H99.8C101.8 103 103.7 103.7 105.8 103.8C108 103.7 110.2 102.9 112.5 101.4C114.6 100 116.3 98.1 117.6 95.6C119.8 92 121.2 88.2 121.7 84.1C122 80.8 121.7 78.2 120.8 76C120.1 74.8 119.2 73.6 118.2 72.5C117 71.7 115.8 71.2 114.5 71C113.3 70.8 112.2 71.1 111.2 71.6C111.9 67.7 112.2 63.9 111.9 60.1C111.4 55.4 110.4 50.8 108.6 46.4M112.4 79.7C113.3 78.7 114 78.1 114.6 77.8C115.7 79.2 116.1 81.3 115.8 84.2C115.3 86.9 114.4 89.4 113 91.8C111.7 94.4 110.1 96.2 108.4 97.1C107.4 97.7 106.3 97.9 105.1 97.8C103.8 97.9 102.6 97.6 101.5 96.9C101.4 96.7 101.1 96.5 100.6 96.3C100.6 96.1 100.6 95.9 100.7 95.8C100.8 95.4 100.8 95.2 100.8 95C104 90.3 106.6 85.5 108.7 80.7C109.3 81.3 109.9 81.4 110.6 81.2C110.9 81.1 111.6 80.6 112.4 79.7M40.4 45.8C43.1 48.9 45.4 50.9 47.4 51.8C48.5 52.5 49.9 53.1 51.7 53.7C52.9 54.5 54.1 55.1 55.3 55.5C56.5 55.8 58.1 55.9 59.9 55.8C62 56.4 63.6 56.9 64.8 57.3C66.5 57.5 68 57.4 69.5 56.8C70.2 56.7 70.8 56.4 71.4 55.9C71.9 56 72.4 55.9 72.7 55.8C77.2 55.1 82.3 52.8 88 49.1C89.8 48.1 91 47.1 91.7 46.1C92 45.7 92.4 45.2 93 44.6C93.2 43.9 93.5 43.4 93.8 43.1L94.2 42.6V42.9C94.2 44 94.3 45.4 94.4 47.2C94.7 51.8 94.9 55.4 95.1 57.9C95.6 61.7 96.4 65.1 97.6 68.1C98.7 71.2 100.3 73 102.3 73.6C101.7 75.1 101.1 76.7 100.4 78.2C100.3 78.7 100.2 79.2 99.9 79.7C99.7 81 99.4 82.5 98.8 84.1L94 100.7V101.1C93.9 101.3 93.9 101.4 93.9 101.6L93.1 103.8C93 104.7 92.8 105.5 92.5 106.2C92.3 106.2 92.2 106.3 92.2 106.4C92.2 106.6 92.1 106.9 91.8 107.2C91.4 107.9 91.2 108.4 91.1 108.7C91.1 109 91.1 109.3 91 109.6C90.9 110 90.9 110.3 90.8 110.7C90.6 112 90 113.1 88.8 114C88.5 114.1 88.2 114.1 87.9 114.1C87.7 114.1 87.6 114.2 87.5 114.4C87.3 114.7 87.2 115.1 87.1 115.6C86 115.8 84.8 116 83.5 116.2C82.1 116 80.1 115.9 77.6 115.8C67.6 115 56.1 113.4 43.1 110.9C37.4 109.9 33 108.9 29.9 107.7C28.1 107.1 26.8 106.4 25.9 105.6C22.9 103.4 21.4 99 21.6 92.4C21.5 91.3 21.6 90.3 21.7 89.5C22 88.8 22 88.1 21.7 87.6L21.8 87.4C21.7 86.3 21.7 85.6 21.7 85.5C21.5 83.1 21.1 81 20.5 79.3L20.8 79.4C18.8 72.7 18.3 66 19.2 59.3C19.3 59.1 19.3 59 19.3 58.8C19.1 55.7 19.5 52.8 20.5 50C21 48.8 22 46.9 23.6 44.5C24.7 42.7 25.6 41.5 26.1 40.7C27.3 39.7 28.2 38.9 28.8 38.2C29.5 37.4 30.1 36.9 30.7 36.5C32.2 38.4 33.6 39.7 34.6 40.5C35.4 41.3 36.3 41.9 37.2 42.4C37.9 43.4 39 44.6 40.4 45.8M10.9 65.5C11.2 67.3 11.6 69.3 12.2 71.4C12.1 71.8 12.2 72 12.4 72.2C12.6 74.8 12.9 77.2 13.4 79.6C13.8 79.4 14.1 79.3 14.3 79.1C14.7 79.2 14.9 79.1 15.2 78.9C15.4 79.1 15.4 79.3 15.4 79.4C16.1 81.2 16.4 83.4 16.5 86.1V86.2C16.3 86.2 16.1 86.3 15.6 86.4C14.2 86.9 13.4 87.1 13.2 87.1C11.8 87.6 10.6 87.7 9.6 87.4C9.3 86 9.5 84.5 10.4 83.1L10.2 82.8C10 83 9.9 83.2 9.9 83.3C9.8 84 9.6 84.8 9.3 85.7C9.2 86.2 9.1 86.7 9.1 87.2C8.9 87 8.7 86.8 8.4 86.6C6.7 83.9 5.9 80.7 5.8 77.2C5.5 74 6 70.8 7.3 67.8C7.8 67.1 8.3 66.4 8.9 65.8C9.6 65.2 10.3 65.1 10.9 65.5M50.3 68.2C50.2 67.8 49.8 67.1 49.2 66.3C48.5 65.5 48.1 64.9 48 64.6C47.5 63.3 47 62.5 46.5 62C46.1 61.2 45.4 60.9 44.5 60.9C43.5 60.8 42.6 61 42 61.6C41 62.4 40.5 63.6 40.5 65.3C40 68.9 40.9 72 43.1 74.8C44.6 76.5 46.1 77.3 47.7 77C48.6 76.7 49.2 76.1 49.7 75.1C50.2 74.4 50.5 73.5 50.6 72.4C51 70.9 50.9 69.4 50.3 68.2M75 78.3C76.2 77.4 77.3 75.9 78.1 73.8C78.4 72.4 78.6 70.7 78.7 68.8C78.5 67.1 78.2 65.7 77.5 64.5C77 64 76.5 63.6 75.9 63.3C75.2 62.8 74.6 62.8 73.9 63.1C72.8 63.3 71.8 64.1 71 65.4C69.2 68.7 68.6 72 69.1 75.5C69.3 76.5 69.6 77.3 70.1 77.9C70.7 78.5 71.4 78.9 72.2 79C73.3 79.2 74.2 78.9 75 78.3M35.4 92.4C35.9 93.5 36.6 95 37.6 96.8L39.1 99.3C39.2 99.8 39.4 100.3 39.6 100.7C40.1 101.1 40.5 101.4 41 101.7C44.8 104.2 48.5 105.6 51.9 106.1C53.4 106.3 55.3 106.4 57.3 106.3C58.3 106.4 60 106.4 62.4 106.1C63.1 106.2 64.2 106.2 65.7 106C67 105.9 68 105.9 68.8 105.8C69.7 105.6 70.6 105.4 71.5 104.9C72.4 104 73.5 103.3 74.8 103C75.9 102.6 76.6 102.4 77 102.1H77.2C77.5 101.8 77.9 101.4 78.5 100.9C78.9 100.6 79.3 100.2 79.7 99.7C80.1 99 80.6 98.3 81.2 97.7C81.4 98.1 81.4 98.5 81.4 98.9C81.6 100.1 82 101 82.5 101.4C82.8 102 83.3 102.3 84 102.4C84.7 102.3 85.3 102.2 85.8 101.9C86.4 101.4 86.8 100.8 86.8 100.1C86.9 99.5 86.8 99 86.6 98.4L86 97.8C85.7 97.4 85.5 97 85.4 96.6C85.1 96.2 84.8 95.5 84.6 94.5C84.4 93.4 84.3 92.4 84.4 91.6C84.5 90.7 84.5 90 84.4 89.7C84.2 89.3 84 89 83.8 88.8C83.5 88.6 83.2 88.6 82.9 88.7C82.6 88.8 82.4 89.1 82.2 89.7C81.9 90.6 81.7 91.5 81.6 92.3C81.4 92.3 81.3 92.4 81.3 92.5C80.9 92.6 80.6 92.8 80.1 93.1L60.5 92.5C55.9 92.4 52.4 92.3 50.3 92C48.9 91.6 47.7 91.4 46.8 91.3C45.5 91 44.3 90.8 43.2 90.8C42.2 90.7 40.5 90.7 38.3 91C36.9 91.2 35.7 91.3 35 91.4C35.2 91.8 35.2 92.1 35.4 92.4M50 94.1L55.1 94.2C57 94.1 58.6 94.2 60 94.4C61.3 94.6 64.2 95 68.8 95.8C69.6 95.9 70.4 96.1 71.3 96.3C70.9 96.5 70.4 96.8 69.8 97.2C68.9 97.7 67.7 98 66.1 98.1C64.4 98.2 63.2 98.3 62.2 98.3C61.4 98.4 60.8 98.4 60.6 98.4C60.2 98.5 59.4 98.4 58.2 98.1C57.5 97.8 56.4 97.7 54.7 97.6C53.3 97.4 52.1 97.2 51.2 96.8C50.3 96.7 49.7 96.4 49.4 95.8C49.3 95.6 49.3 95.3 49.3 94.6C49.4 94.2 49.3 94 49.2 93.7C49.6 94 49.8 94 50 94.1M229 150.8C229.3 150.2 229.4 149.6 229.2 149.1C229 148.4 228.7 147.9 228.3 147.7C227.3 147.2 226.1 147.5 224.5 148.6C220.1 151.5 215.5 153.6 210.7 155C210.6 153.8 211.1 152.7 212.1 151.7C212.2 151.5 213.1 150.5 214.7 148.6C215.8 147.8 216.5 146.7 216.9 145.3C217.2 143.9 216.9 142.8 216 142C214.6 140.8 212.5 141.1 209.6 142.8C205.3 145.5 202 147.4 199.5 148.5C197.4 149.6 195.5 150.5 193.6 151.1C193.5 150.9 193.4 150.7 193.4 150.5C193.1 149.9 192.9 149.4 192.8 149C192.6 148.8 192.4 148.6 192.3 148.2C191.9 148.2 191.3 148.1 190.7 148C186.4 147.5 183 147.8 180.5 148.9C178.6 149.6 176.7 150.9 174.5 152.8C170.6 156.6 167.6 161 165.5 166.1C164.5 168.4 163.3 171.9 162.1 176.4C160.7 181.6 159.6 185.2 158.8 187.2C158.1 188.9 157.3 190.8 156.5 193.1C155.6 191 154.4 189.5 153 188.4C152.1 187.8 151.1 187.4 150.1 187.2C149 187.1 148 187.2 147.1 187.5C145.8 188.2 144.6 189.5 143.7 191.6C141.9 195.1 141.1 198.9 141.4 203C141.7 206.9 142.7 210.6 144.7 214C145.6 215.3 146.5 216.2 147.2 216.7C146 221.3 145.4 225.7 145.3 229.9C145.1 235 145.7 239.9 147.2 244.7C147.7 246.2 148.2 247.6 148.7 248.9L151.5 257.4C152.4 260 153.1 261.9 153.7 263.1C154.1 264 154.9 265.3 156.2 267C156.1 267.2 156.4 267.8 157 269C157.2 269.7 157.5 270.4 157.9 270.9C158.9 272.2 160.1 272.8 161.4 272.7C162.5 272.7 163.3 272.2 164 271.3C164.6 270.5 164.9 269.5 165.1 268.4C165.1 268.3 165.2 267.8 165.3 267L166.1 272.7C168.5 272 170.6 272.6 172.5 274.4C172.8 274.7 173.5 275.5 174.7 277C175.4 277.9 176.2 278.5 177.1 278.9C178.3 279.4 180.1 279.2 182.3 278.4C184.9 277.4 186.7 277 187.7 277.2C189 277.1 190.5 277.8 192 279.1C192.8 279.7 193.9 280.6 195.3 282C196.2 281.5 197.6 281.5 199.3 281.8C199.2 284.1 200.5 284.6 203.1 283.3C204.6 282.4 205.9 281.4 207 280.3L214 284.8L215.9 283.6C216.3 283.1 216.7 282.7 217.1 282.4C217.5 282.4 217.7 282.3 218 282.1L217.9 282.4L222.9 279C222.9 278.8 222.9 278.6 223 278.5C223.1 278.1 223.1 277.9 223.1 277.7C223.6 278.1 224.2 278.3 224.9 278.4C225.6 278.3 226.4 278.2 227.2 278.2C228.5 277.7 229.7 276.5 230.8 274.8C231.1 275.4 231.5 275.9 232 276.5C232.1 276 232.3 275.5 232.7 275C234.6 272.1 235.8 270.2 236.2 269.3C237.4 267.1 238.3 265.2 239.1 263.5C241 258.7 241.7 254.5 241.1 250.6C240.8 249.4 240.7 248.7 240.8 248.6C240.7 247.9 240.8 247.2 241 246.7C241.2 246.2 241.7 245.7 242.5 245.2C242.8 245.1 243.1 245.1 243.5 245.1C243.1 244.4 242.5 243.8 241.9 243.3L241.7 243.2C241.9 241.7 242 240.1 242.2 238.5C242.1 237.6 242 236.7 242 235.6C243.4 235.3 244.5 234.5 245.3 233.2C245.5 232.9 245.7 232.3 246 231.3C246.5 230.2 246.7 229.6 246.7 229.4C246.9 228.9 247.2 228.2 247.7 227.5C248.3 226.8 248.7 226.2 248.9 225.7C249.6 224.4 249.9 222.5 249.8 220C249.9 217 249.3 214.3 248.2 212C247.6 210.5 246.7 209.4 245.6 208.8C244.8 208.3 243.9 208.2 242.7 208.5C241.5 208.5 240.2 208.8 239.1 209.4L236.5 190.5C235.5 182.9 234.3 177 233 172.8C232.6 171.6 232.2 170.5 231.8 169.4C233.1 167.7 234.3 166.3 235.3 165.1C237.1 162.4 238.1 159.9 238.2 157.7C238 156.1 237.4 155.1 236.5 154.8C235.6 154.2 234.5 154.2 233.2 154.7C232.9 155.1 232.5 155.4 232 155.9C231.7 156.2 231.4 156.6 230.8 157.1C228.2 159.5 225 160.6 221.4 160.6C220.2 160.4 219.2 160.5 218.5 160.8C218.1 160.9 217.8 161.1 217.3 161.5C216.9 161.8 216.8 162.2 216.9 162.7C217 163.6 217.7 164.2 219.1 164.5C221.6 165.5 224.4 165.9 227.4 165.7C226.7 165.8 226.2 166.1 225.8 166.6C224.1 166.8 222.4 166.8 220.5 166.6C222.8 168.7 224.4 171.1 225.5 173.7C226 175 226.4 176.5 226.7 178.3C226.9 179 227.1 179.9 227.4 181.2C226.2 179.1 224.6 177 222.8 174.8C220.2 171.7 217.5 170.4 214.7 170.9C213.6 170.9 211.9 171.9 209.7 173.8C207.5 175.5 205.7 176.4 204.4 176.5C204.3 176 204.3 175.5 204.6 174.8C204.9 173.8 205.1 173.1 205.1 172.8C205.2 171.9 204.8 171 203.9 170.2C202.9 169.4 202 169 201 169.1C199.9 169.2 198.9 169.4 197.9 170C197.3 170.5 196.4 171 195.1 171.7C192.6 173.3 190.7 173.5 189.4 172.3C189.4 170.8 189.5 169.6 189.6 168.8C189.4 167.2 188.9 166.2 187.8 165.9C187 165.3 186.1 165.3 185.2 165.9C183.8 166.3 182.7 166.7 181.9 167C181.7 167.1 180.9 167.3 179.4 167.5C178.5 167.9 177.7 168.2 177.1 168.5C176.4 169.1 175.8 169.8 175.2 170.7C174.8 171.3 174.4 172.3 173.9 173.7C173.4 174.7 172.8 175.9 172 177.3C171.4 178.1 170.6 179.2 169.6 180.6C168.1 183.1 166.5 186 164.9 189.3C164.2 191 162.8 193.9 160.9 198.1C158.9 202.4 157.7 205.8 157.2 208.2C156.6 210.6 156.5 213.2 156.9 215.9C157.3 218.6 158.1 221.1 159.3 223.3C160.4 225.6 161.6 226.8 163.1 227C164 227.1 164.8 226.8 165.5 226.2C166.3 225.5 166.5 224.7 166 223.8C171.2 224.7 176.7 224.2 182.4 222.2C183.3 222.5 183.9 222.4 184.4 221.9C184.6 222 184.9 221.7 185.5 221C186.1 220.7 186.7 220.5 187.4 220.3H187.9L191.3 220.7C192.4 220.9 193.3 221 194 221C194.8 221.2 195.5 221.6 196.1 222.2C196.5 222.6 197.1 223.2 197.9 224.1C198.7 224.9 199.4 225.2 200.1 225.2C200.5 225.3 200.8 225 201.1 224.5C201.4 224 201.4 223.5 201.2 223.2C201.1 223 201 222.9 200.8 222.9C200.5 222.7 200.3 222.5 200.2 222.3C199.9 222.1 199.6 221.8 199.3 221.1C199.2 220.6 199 220.1 198.7 219.7C198 218 196.5 217 194.1 216.5C193.4 216.2 192.6 216 191.5 215.9C189.6 215.7 188.7 215.6 188.6 215.5C187.6 215.4 187 215.3 186.8 215.3C186.1 215.2 185.6 215.2 185.3 215.4C185 215.6 184.7 215.6 184.4 215.6C180.8 217.3 177.4 218.4 173.9 219C172.4 219.4 170 219.6 166.6 219.7C165.7 219.8 165.1 219.7 164.6 219.5C163.9 219.1 163.5 218.4 163.4 217.4C162.6 214.9 162.5 212.3 162.9 209.5C163.1 207.7 164 205.1 165.5 201.8L169.6 192.8C171.5 188.6 173.1 185.6 174.4 183.8C175.2 182.8 175.7 182.1 176 181.6C176.6 180.7 177.1 180 177.5 179.4C177.7 179.1 178 178.4 178.5 177.3C179 176.5 179.4 175.8 179.7 175.1C180.7 173.6 181.9 172.7 183.3 172.5C183 173.2 183 174 183.3 174.9C183.7 175.8 184.2 176.4 184.7 176.9C186 177.8 187.7 178.3 189.6 178.4C192.2 178.7 194.7 178.4 197 177.4C196.3 179.3 195.9 180.8 195.8 181.8C195.9 182.7 196.1 183.5 196.5 184.1C196.7 184.8 197.2 185.2 198.1 185.5C198.8 185.8 199.5 185.8 200.3 185.6C201 185.3 201.8 184.9 202.7 184.3L212.1 178.6C213.7 177.5 215 177 216 177.1C217.6 177.3 219.2 178.5 220.8 180.8C223 183.9 224.4 186.7 225.1 189.3C225.4 189.5 225.7 189.9 226 190.6L226.8 195.6C226.9 195.2 227.1 195.1 227.7 195.1C227.9 195.1 228.1 195.2 228.5 195.3C228.7 195.7 228.8 196.3 228.9 197.1L228.8 197.6C229 197.8 229 198 229 198.2C229.2 198.2 229.4 198.7 229.6 199.7C229.7 200.4 229.8 201.2 229.9 202.3C230 202.8 230 203.5 229.9 204.5C229.8 204.8 229.8 205 229.7 205.2H229.9C230.3 205.3 230.5 205.4 230.7 205.7L230.9 205.9L233.5 226.2C233.6 226.9 233.6 227.5 233.7 228.1C233.4 228.2 233.2 228.4 233 228.6L233.2 230C232.9 230.8 232.6 231.7 232.3 232.7C232 233.8 231.9 234.6 231.8 235.1C231.7 236 231.8 236.6 232 237C232.4 237.7 233.1 238 234.3 237.9C234.4 240.9 234.1 243.6 233.4 246C233.3 246.1 233.3 246.2 233.3 246.4C234.6 249.1 235.7 251.9 236.4 254.6C236.3 255 236.2 255.6 235.9 256.3L235.7 255.9C235.3 255.7 235 255.7 234.7 255.8C234.3 256 234 256.2 233.8 256.5C231.4 260.2 229.7 263 228.8 264.7C228.4 265.7 227.9 266.7 227.3 267.7L226.1 271.1V271.3C225.8 271.2 225.5 271.1 225.3 271C224.8 270.9 224.4 270.8 224.1 270.5C223.9 270.1 223.8 269.5 223.9 268.9C224 268.4 224.3 267.8 224.7 267.2C225.7 266 226.5 265 226.9 264.2C227.1 263.7 227.3 263.3 227.6 263C227.8 262.5 228 262.1 228.2 261.9C228.9 261.3 229.3 260.8 229.5 260.5C229.6 260.1 229.6 259.6 229.7 259L229.8 258.8C228.9 258.2 228.1 257.9 227.6 257.9C226.6 257.8 225.6 258.2 224.8 259.1C224.2 259.9 223.5 261 222.6 262.4C220.9 265.7 218.7 268.6 215.9 271.2C216.3 270.4 216.1 269.7 215.4 269.2C214.7 268.6 213.9 268.5 212.9 268.7C212.2 269 211.7 269.6 211.4 270.4C211.2 271.1 211.1 272 211.1 273C211.2 273.6 211.4 274.3 211.6 275H211.4C211.2 275.1 210.9 275.1 210.5 275.1C210.5 274.9 210.4 274.7 210.3 274.3C210.2 273.3 210 272.5 209.8 271.8C209 270.5 208.5 269.5 208.3 268.8C208 267.8 207.8 267.3 207.7 267.3C207.5 266.7 207.1 266.5 206.4 266.6C205.7 266.7 205.2 267.1 204.9 267.8C204.8 268.2 204.9 268.7 205.1 269.2L205.3 271.5C205.6 272.5 205.7 273.4 205.6 274.1C205.5 274.3 205.5 274.5 205.5 274.9C205.1 274.8 204.8 275 204.4 275.2C204.2 274.5 204.2 273.7 204.2 272.6C203.2 272.7 202.3 272.9 201.4 273.3L199.5 266.9C199 264.8 198.1 263.7 196.9 263.6C195.8 263.4 194.7 264.1 193.6 265.6C192 267.7 190.8 269.8 190 271.8C189.4 271.9 188.9 271.7 188.5 271.2C188.2 270.8 188.1 270.3 188 269.7L186.5 263.3C186.3 262 185.9 261.2 185.3 261C184.6 260.5 183.9 260.5 183.1 260.9C182.5 261.4 182 262 181.6 262.7C181.5 263.2 181.5 264 181.4 264.9C181.5 266.2 181.5 267 181.5 267.1C181.4 268 181.1 268.7 180.7 269.3C180.3 270 179.7 270.4 179 270.5C178.8 270.4 178.6 270.4 178.3 270.4C178.1 269.7 177.6 269.2 176.7 269C176.4 269 176.1 269 175.9 268.9C175 268.1 174.3 266.9 173.7 265.3C172.4 262.7 171.7 261.2 171.6 260.8C170.5 258.9 169.9 257.7 169.8 257.3C169.5 256.8 169.3 256 169.3 255.1C169 254.3 168.9 253.6 168.8 253C168.5 251.1 167.9 249.8 167 249.1C166.4 248.5 165.7 248.2 164.9 248.1C164.1 248.2 163.5 248.5 163 248.9C162.4 249.4 162.1 250.3 161.9 251.8L160.4 262.5C159.4 261.9 158.6 261 158.1 259.7C157.8 259 157.3 257.7 156.6 255.8C155.7 253 154.4 250.1 152.9 247.1C152.5 246.2 152.1 245.4 151.7 244.8L152 243.3C152.3 241.8 152.7 240.4 153.2 239.3C152.9 237.4 152.7 235.4 152.7 233.4C152.4 226.7 153.2 220.2 154.9 213.7C155.7 210.2 157.7 204.8 160.8 197.4L167.6 180.4C169.5 175.5 171.1 171.9 172.4 169.6C174.5 165.9 176.6 162.9 178.9 160.5C180.9 158.5 182.7 157.2 184.6 156.6C185.2 156.4 185.9 156.2 186.8 156.1C187 156.7 187.4 157.1 188.1 157.3C189.1 157.6 190.4 157.4 192.1 156.7L203.3 153.5C201.4 156.1 201.2 158.2 202.6 159.6C203.1 160.5 204.4 161 206.5 161.1C210.2 161.2 213.9 160.5 217.7 159.1C221.4 157.9 224.6 156 227.4 153.3C228.2 152.5 228.9 151.6 229 150.8M239.2 214.1C240.1 213.2 241.1 212.8 242.1 213.1C242.9 213.4 243.3 214.3 243.5 216C243.7 217.5 243.8 218.8 243.8 219.8C243.8 221.2 243.5 222.3 242.9 223.2C242.7 223.7 242.1 224.7 241.1 226.4V226.6C240.8 225.9 240.7 225.2 240.6 224.5L239.2 214.1ZM148.8 210.8C146.9 208.4 146 205.5 146 202C146.2 199.2 147 196.1 148.6 192.6C149.7 192.7 150.7 193.2 151.6 194.1C152.6 194.9 153.3 195.9 153.5 197C153.6 197.4 153.7 197.9 153.8 198.6C153.4 199.4 152.9 200.2 152.5 201.2C151.2 204.4 150 207.6 148.8 210.8M243.2 13.3C239.4 10.1 236.2 7.6 233.6 5.9C229.9 3.5 226.2 1.9 222.7 1C220.2 0.3 217.3 0 214 0C212.1 0.1 209.1 0.2 205.1 0.4C201.3 0.8 198.6 1.1 197 1.3C194 1.8 191.3 2.5 189.2 3.4C186.7 4.4 184.4 5.9 182.5 7.8C180.6 10 179.5 12.4 179.1 14.9C178.9 15.4 178.9 15.8 179.2 16.1C179.5 16.5 179.9 16.4 180.5 16C181 15.7 181.3 15.3 181.6 14.5C182.4 12.7 183.7 11.1 185.7 9.7C187.4 8.4 189.3 7.5 191.7 7.1C193.6 6.5 195.8 6.2 198.3 6.1C199.7 6 201.8 6 204.7 6.1L214.4 5.6C218.1 5.7 221.2 6.1 223.8 6.8C225.8 7.6 227.9 8.6 229.9 10C231.3 10.8 233.3 12.2 235.7 14.1C237.6 15.6 239 16.7 240 17.4C241.4 18.7 242.5 20 243.3 21.2C245.6 24.4 247 28.8 247.4 34.4C248 42.9 246.7 51 243.5 58.9C242.8 61 242.3 62.4 242 63.3C241.5 65 241.6 66.4 242.2 67.6C242.8 68.7 243.8 69.8 245.1 70.8C246 71.4 247.3 72.2 249 73C251.2 74.3 253.2 76.2 255.2 78.7C256.5 80.3 258 82.6 259.8 85.6C261.5 88.1 262.6 90.1 263.1 91.6C263.3 92 263.5 92.3 263.7 92.5C264.6 93.2 265.4 94.1 266.1 95.2C267 96.7 267.4 98.3 267.3 100.1C267.4 100.9 267.2 101.5 266.9 102C266.7 102.4 266.5 102.6 266.3 102.9C265.8 103.1 265.3 103.1 265 103C264.6 102.7 264.3 102.5 263.9 102.5C263.7 102.3 263.2 102.2 262.4 102.3C262 102.1 261.6 101.9 261.2 101.6C260.8 101.4 260.6 101.1 260.6 100.4C260.6 99.9 260.7 99.4 260.9 99.1H260.6C260.6 98.9 260.5 98.8 260.3 98.6C260.1 97.9 259.4 96.5 258.3 94.3C254 84.9 248.1 76.6 240.6 69.5C239.9 68.6 239.2 68.1 238.5 67.9C238.2 66.3 238 64.8 237.8 63.3C238.5 63.1 239 62.7 239.4 62.2C240 61.3 240.3 60.2 240.3 59.1C240 57.2 238.8 55.7 236.5 54.5C235.5 54.2 234.7 53.9 234.3 53.6C233.9 53.2 233.3 52.6 232.4 51.8C230.2 50 227.8 48.7 225.1 47.7L217.7 44.9C214.8 43.9 212.4 42.8 210.7 41.6C209.2 40.2 208 39.2 207.1 38.6C206.7 38.4 205.3 37.6 202.9 36.1C202 35.7 200.8 34.9 199.5 33.8C200.7 34.4 201.7 35 202.6 35.4C205.6 36.8 209.2 37.8 213.4 38.5C216 38.9 219.8 39.2 224.8 39.7C226.7 40 228.2 40.2 229.4 40.6C230.7 41 231.9 41.6 232.7 42.2C233.1 42.5 233.6 43 234.2 43.6C234.9 44.1 235.5 44.4 236.1 44.5C237.2 44.8 238.1 44.5 238.8 43.6C239.7 42.8 240 41.9 239.7 41C239.5 39.8 238.5 38.6 236.8 37.6C235.5 36.8 234.3 36.1 233.1 35.7C230.5 34.7 227.1 34.1 222.8 33.8C216.8 33.4 213.3 33.1 212.3 32.9C209.5 32.5 206.4 31.7 203.2 30.3C200.9 29.4 197.9 28 194.4 26.1C192.6 25.2 191.1 24.6 190 24.2C189.4 24 188.9 24 188.4 24C188.2 24 188.2 23.9 188.2 23.7C189.7 23.6 191.7 23.3 194 22.9C197.7 22.2 200.6 22 202.7 22.2C203.3 22.4 204.4 22.6 206 22.8C207.1 23 208.1 22.9 209 22.6C209.5 22.4 209.9 22.1 210.2 21.7C210.6 21.4 210.7 21.1 210.7 20.7C210.7 19.8 210.2 19.3 209.1 19.2C208.7 19 208.4 19 208 19C207.4 18.9 207 18.8 206.8 18.8C206.3 18.7 205.7 18.5 204.9 18.2C203.6 17.7 203 17.4 203 17.3C201.7 16.9 200 16.8 197.8 17.1C195.3 17.7 193.4 18.1 192.1 18.1C191.2 18.2 190 18.2 188.5 18.3C186.8 18.2 185.6 18.2 184.7 18.3C183.7 18.4 182.7 18.6 181.8 19.2C181.1 19.6 180.7 20.2 180.8 21C180.9 22 181.3 22.8 182 23.2C182.7 23.6 183.4 23.8 184.2 23.9C184.6 24.2 184.8 24.5 185 24.8C184.5 25.2 184.3 25.6 184.3 26.1C184.3 26.6 184.7 27.1 185.4 27.4C186 27.3 186.5 27.4 187.1 27.6C188.2 28.7 189.3 29.8 190.2 31C191.4 32.3 192.4 33.3 193.4 34.2C194.1 34.7 195.3 35.4 196.8 36.4C197.3 36.8 198.2 37.5 199.5 38.5C200.5 39.5 201.4 40.1 202.3 40.4C203.1 40.7 204 41 205.2 41.5C205.7 41.8 206.4 42.2 207.1 42.7L208.6 44.2C210.3 45.6 212.1 46.9 214.3 48.2C215.7 49.1 217.8 50.3 220.6 51.7C223.2 53.3 225.1 54.6 226.3 55.6C227.1 56.2 228.1 57.2 229.5 58.7C230.3 59.4 231.5 60.2 233.1 61.3C232.8 61.3 232.5 61.2 232.1 61.1C231 60.8 229.8 60.6 228.7 60.4C227.8 59.7 227.1 59.3 226.5 59.2C225.4 58.7 223.9 58.5 222.1 58.6C215.5 56.6 209.8 54.3 205.1 51.8C195.6 47 188.2 41 183 33.7C182.3 32.6 181.5 31.3 180.6 29.8V30C181.6 32 182.2 33.2 182.4 33.7C183.1 35.6 184.5 37.7 186.6 40.1C191 46 195.9 50.7 201.2 54.2C207.2 58.3 213.4 60.7 219.9 61.4C221.5 61.7 223.2 61.9 225 61.9C225.6 62.1 226.2 62.4 226.8 62.9C227.2 63.2 227.6 63.7 228.2 64.4C229 65 229.5 65.4 229.9 65.5C229.9 65.7 230 65.9 230.1 66C231 71.7 230.8 77.2 229.6 82.3C228.9 85.8 227.6 89.5 225.8 93.5C225.2 94.6 224.4 96 223.6 97.7L223.8 97.9C223.8 98.3 223.7 98.6 223.6 99.1C222.6 100.9 222 102 221.8 102.4C221.3 103.2 220.6 104.5 219.6 106.3L216.3 111.8C215.5 112.8 214.5 113.9 213.4 115C211.6 116.6 209.6 118.3 207.3 120C205.8 120.8 204.7 121.3 203.9 121.3C203 121.5 202.3 121.4 201.7 121C201 121.2 200.2 121.3 199.3 121.4C191.2 122 185 120.5 180.6 116.9C180.1 116.6 179.3 115.8 178.4 114.7C177.3 113.8 176.3 113.1 175.6 112.6C175.6 112.4 175.5 112.3 175.3 112.4C169.1 105.8 164.4 98.7 161.3 90.9V90.7C161.8 89.3 161.8 88 161.4 86.9C161.2 86 160.7 85.2 159.9 84.3C159.7 84.2 159.4 83.9 159 83.4C157.8 79.5 157 75.6 156.8 71.6C156.5 66.2 157.1 60.9 158.5 55.8C159.3 53.1 160.1 51.2 160.9 50C161.7 48.7 163.5 46.9 166.1 44.6C169 41.9 171.8 38.9 174.5 35.5C177.1 32.5 179 30.4 180.3 29.3L180.2 29C179.1 27 177.9 24.7 176.6 22.1C174.7 23.8 172.3 26.2 169.3 29.3C165.4 33.4 162.7 36.5 161.4 38.4C157.5 43.6 154.7 49.3 153 55.7C151.1 61.8 150.4 68.1 150.7 74.4C148.6 71.3 147.1 67.7 146.2 63.6C144.3 55.9 144.9 48.6 148 41.8C149.2 39.1 151.2 35.7 153.9 31.6C156.4 27.9 158.9 25.1 161.2 23.4C164.1 20.7 167.2 19.3 170.4 19.1C170.7 19.1 171.2 19 171.9 18.7C172.4 18.6 172.9 18.5 173.2 18.4C173.6 18.2 174 17.9 174.3 17.2C174.5 16.7 174.5 16.3 174.2 16C173.8 15.7 173.4 15.4 172.8 15.1C171 14.6 169.1 14.6 167.1 14.9C165.1 15.2 163.2 15.8 161.3 16.8C158.5 18.3 155.6 20.9 152.6 24.5C148.2 29.6 144.8 35 142.4 40.5C139.8 46.6 138.7 52.6 139.1 58.5C139.3 63.6 140.8 68.7 143.6 74C145.8 78.3 148.8 83.1 152.7 88.2C152.9 88.9 153.1 89.6 153.3 90.1C153.1 90.5 152.8 90.8 152.3 91.2C148.9 93.9 145.4 97.9 141.8 103.1C138.4 108.3 136.2 112.7 135.2 116.3C134.7 118.9 134.6 121.4 134.8 123.7C135.1 126.2 135.9 128.5 137.1 130.4C138.1 131.7 139.2 132.8 140.4 133.5C141.8 134.3 143.2 134.5 144.6 134.1C145.5 133.8 146.5 133.2 147.5 132.3C148.1 131.5 148.7 130.4 149.3 129C149.5 130 149.7 131.2 150 132.6C150.1 134.5 150.2 135.8 150.2 136.5C150.4 137.6 150.8 138.7 151.4 139.8C152.2 140.9 153.1 141.7 154.1 142C154.9 142.3 155.8 142.2 156.9 141.8C157.8 141.4 158.5 140.9 159.1 140.3C160.1 139.2 161 137.5 162 135.3C162.3 136.6 163 137.6 164.2 138.5C165.4 139.3 166.6 139.7 167.8 139.7C169.2 139.6 170.4 139.2 171.5 138.5C172.5 137.6 173.3 136.5 173.7 135.3C176.2 136.7 178.4 137.2 180.4 136.9C181.5 136.7 182.5 136.1 183.4 135.2C184.3 134.4 184.8 133.3 184.7 132.1C185.1 132.6 185.5 133.4 186.1 134.5L188.1 136.3C190.5 137.8 192.6 137.7 194.5 136L196.4 134.6L199 134.8C201.2 135 203.9 134.3 207.1 132.7C208 134.5 209.6 135.8 211.9 136.6C214.3 137.2 216.2 136.7 217.6 135.2C218.1 134.8 219 133.8 220.3 132.1C221 131.2 221.6 130.4 222.2 129.9C222.9 129.8 223.5 129.9 224.1 130.1C225.5 131.3 227.2 131.8 229.3 131.7C230.4 131.6 231.6 131.2 232.8 130.6C233.1 131.7 233.6 132.7 234.5 133.5C235.2 134.2 236.2 135.1 237.4 136.1C238.7 137.1 240 137.6 241 137.6C241.9 137.8 242.6 137.5 243.2 136.7C243.9 136.2 244.4 135.6 244.9 134.7C245.4 133.6 245.5 131.9 245.4 129.7L245.6 126.7C248 127.9 250.1 128.4 251.7 128.3C253.2 128.1 254.6 127.4 255.6 126.2C256.6 124.9 257.1 123.4 257.2 121.6C257.3 120.4 257.2 118.7 257 116.5C258.5 116.6 259.7 116.6 260.6 116.6C262 116.5 263.2 116.2 264.1 115.6C265.6 114.8 266.8 113.3 267.7 111.1C268.5 109.6 268.9 108.1 268.8 106.7C269.5 106.7 270.1 106.4 270.7 105.8C271.4 105 271.9 103.7 272.2 101.9C272.5 96.6 271 91.3 267.8 85.8C265.6 81.7 262.1 77.1 257.4 71.9C256.1 70.1 254.8 68.9 253.7 68C252.2 66.8 250.6 65.9 249 65.2C251.3 60 252.8 54.5 253.6 48.5C254.4 42.7 254.5 36.9 253.8 31.1C253.2 27.1 252.3 23.9 251 21.6C249.1 19.1 246.7 16.4 243.2 13.3M235.6 88.7C235.7 89.2 235.7 89.7 235.7 90.2C235.5 90.2 235.2 90.3 234.8 90.4C235.2 89.8 235.4 89.2 235.6 88.7ZM244.4 86.1C247.4 89.8 249.7 93.1 251.4 96C252.4 97.5 253.7 99.7 255.3 102.7C255.3 102.9 255.4 103.2 255.5 103.6H255.3C254.7 104 254.2 104.6 253.8 105.5C253.3 105.4 252.8 105.1 252.3 104.6C251.7 104.1 251.2 103.3 250.6 102C250.2 101.4 248.5 97.4 245.6 90C245 88.3 244.4 86.9 243.7 85.5C244 85.6 244.2 85.8 244.4 86.1M152.9 99.1C153.1 98.9 153.4 98.6 153.9 98.2L153.2 100.1L152.4 100.9H152.6L148.1 113.9C147.7 115.1 147.5 116.1 147.4 116.9C147.1 117.3 146.8 117.6 146.4 118C146.4 118.2 146.6 118.3 146.9 118.5L145.9 120C145.3 121.2 144.9 122.3 144.7 123.2C144 125.1 143.1 126 141.8 125.8C140.3 123.4 140 120.4 141.1 116.7C141.7 114.6 143.1 111.9 145.3 108.6C148.3 104 150.8 100.9 152.9 99.1ZM155.4 95.1C155 95.6 154.6 96.4 154.2 97.5L154 97.9C154 96.6 154.5 95.7 155.4 95.1M161.6 106.8C161.4 106.6 161.4 106.4 161.4 106.3V106.1C161.4 106.2 161.5 106.4 161.6 106.8ZM166.4 130L165.8 128.8C166.2 128.7 166.4 128.7 166.6 128.7H166.9C166.7 129.2 166.5 129.7 166.4 130M192.2 104.9C192 105 191.9 105.1 191.9 105.3C192.3 105.2 192.8 105.2 193.5 105.2C193.7 105.1 193.8 105 194 104.8C193.1 104.7 192.5 104.7 192.2 104.9M174.6 83.3L174.1 83.1C173.7 82.9 173.4 82.8 173 82.9V83.2C172.6 83 172.3 83.1 172 83.4L171.8 83.9L171.9 85.1C172.2 85.6 172.7 85.9 173.4 85.9C174 86.1 174.5 85.8 174.9 85C175.1 84.6 175 84.2 174.8 83.8C174.9 83.6 174.8 83.4 174.6 83.3M179.4 83.3C178.9 83.3 178.5 83.5 178.2 83.9C177.8 84 177.7 84.3 177.7 84.8C177.7 85 177.7 85.1 177.8 85.3C177.8 85.7 178 86 178.3 86.3C178.5 86.5 178.7 86.6 179.2 86.8L179.7 87C179.9 87 180.1 86.9 180.5 86.7C181 86.7 181.2 86.5 181.4 86.2C181.8 86 181.9 85.5 181.9 84.8C182.1 84.3 182 84 181.6 83.9C181.2 83.4 180.6 83.2 179.8 83L179.4 83.3M178.2 79.5C177.9 79.4 177.5 79.2 177 79C177 79.2 176.9 79.2 176.7 79C176.3 79.1 176 79.3 175.8 79.6C175.3 80.2 175.2 81 175.4 81.8L175.9 82.3C176.1 82.5 176.2 82.6 176.3 82.8C176.7 82.7 176.9 82.7 177.2 82.7C177.9 82.7 178.4 82.4 178.7 81.8C178.8 81.1 178.8 80.5 178.5 80C178.5 79.9 178.4 79.7 178.2 79.5ZM208.2 87.1C207.1 86.9 206.2 86.9 205.5 87.3C205 87.7 204.5 88.3 204 89.2C203.6 89.7 203.2 90.5 202.8 91.5C202.2 92.7 201.3 93.7 199.9 94.7C198.7 95.6 197.5 96.2 196.2 96.6C193.4 97.2 190.6 96.8 188 95.3C187.4 95.1 186.6 94.7 185.5 93.8C184.5 93.1 183.7 92.7 183.2 92.4C182.5 91.9 181.8 91.7 181.1 91.8C180.5 92 180 92.3 179.7 92.8C179.4 93.5 179.8 94.4 181 95.4C183 97.1 185.1 98.6 187.4 99.9C190.2 101.7 192.7 102.5 194.9 102.4C197 102.5 199.2 101.8 201.6 100.5C204.7 98.8 207.2 96.7 209.1 94.1C210.3 92.1 210.7 90.4 210.2 88.9C209.9 88 209.3 87.4 208.2 87.1M208.6 78.8C207.5 78.4 206.5 78.4 205.7 78.9C205.3 79.5 205.2 80.1 205.2 80.8C205 81.5 205.2 82.1 205.9 82.6C206.4 83.1 207.1 83.2 208 82.9C208.9 82.8 209.5 82.5 209.8 81.9C210.3 81.2 210.3 80.5 210 79.8C209.6 79.3 209.1 79 208.6 78.8M213.1 77.8C213.8 77.6 214.1 77.2 214.2 76.7C214.6 76 214.5 75.4 214.1 74.8C213.8 74.4 213.3 74.2 212.4 74.1C211.7 73.9 211.1 74.2 210.5 75C210.4 75.5 210.4 76.1 210.6 76.9C210.9 77.2 211.2 77.4 211.8 77.6C212.2 77.8 212.6 77.8 213.1 77.8M215.5 79.9C215.3 79.5 214.9 79.4 214.4 79.4C214.1 79.4 213.8 79.7 213.3 80.3L212.8 80.8V81.6L213.1 82.1C213.5 82.5 213.7 82.7 214 82.7C214.4 82.7 214.9 82.5 215.4 82.1C215.7 81.6 215.9 81.2 216.1 80.9V80.4C215.8 80.1 215.6 79.9 215.5 79.9M221.4 64.9C221.2 64.9 221.1 65 220.9 65.1C220.5 64.7 220.1 64.4 219.6 64L217.6 62.5C215.9 61.5 214.9 61 214.6 61C213.6 60.7 212.5 60.6 211.3 60.6C209.5 60.9 207.7 61.8 205.8 63.4C205 64 204.6 64.6 204.5 65.3C204.1 65.7 204.1 66.4 204.3 67.5L204.5 70.1C204.6 71 204.4 72.2 204.2 73.7C204.2 74.1 204.3 74.6 204.5 75.2C204.7 75.7 204.9 76 205.3 76C206 76.1 206.5 75.5 206.9 74.3C207.4 73.1 207.8 71.8 208.1 70.4C208 69.3 208.1 68.4 208.3 67.9C208.6 67 209 66.4 209.6 66.3C210.3 65.9 211.3 66 212.8 66.7C213.7 67.2 214.6 67.7 215.4 68.3C215.4 68.5 215.6 68.9 216 69.4C216.4 69.8 216.6 70.1 216.8 70.5C217.2 70.7 217.5 70.8 217.7 70.8C218.1 71.6 218.6 72.1 219.2 72.5C219.6 72.5 220.1 72.5 220.7 72.4L222.2 71.8C222.5 71.3 222.7 71 222.9 71L224.2 70.5C224.5 70.1 224.7 69.7 224.9 69.3C225.1 68.9 225 68.4 224.8 67.8L223.9 66.1C223.2 65.2 222.4 64.8 221.4 64.9M176.3 59.6C175.3 59.1 174.1 59.1 172.7 59.5C170.9 60.3 169.4 61.9 168.1 64.3C167.7 64.1 167.3 64 166.8 63.8V64H166.6C166.1 63.9 165.6 64 165.3 64.4C165 64.8 164.8 65.2 164.6 65.8C164.4 66.5 164.5 67.2 164.9 67.9C164.4 68.2 164 68.5 163.7 68.8L162.9 69.7C162.8 69.7 162.5 69.9 162 70.2C161.5 70.6 161.3 71 161.3 71.6C161.1 71.8 161.1 71.9 161.1 72C160.7 72.3 160.6 72.6 160.6 73C160.5 73.7 160.7 74.3 161.3 74.9C161.8 75.2 162.4 75.4 163.1 75.4C163.2 75.6 163.4 75.7 163.6 75.8C164.5 76.3 165.3 76.4 165.9 76.1L166.1 76C166.5 76.1 166.7 76.1 167 76C167.9 75.9 168.6 74.9 169.1 73C169.7 70.6 170.7 68.4 172.1 66.5C172.6 65.9 173.1 65.6 173.6 65.6C173.8 65.8 174 66.1 174.5 66.6L176 69.1C176.7 69.6 177.5 70.2 178.2 71C179.7 72.8 180.7 74.3 181.1 75.6C181.7 75.7 182.4 75.7 183.3 75.7L185 75.6C185.1 74.7 184.9 73.7 184.5 72.6C183.7 69.6 181.8 66.1 178.7 62.1C177.9 60.9 177.1 60.1 176.3 59.6M165.3 232.6C164.9 232.8 164.8 233.1 164.8 233.4C164.5 234.2 165 234.8 166.4 235.3C170.1 237 173.9 238.1 177.8 238.6C180 238.9 181.7 238.7 182.9 238.2C183.3 238 184 237.6 185.1 237C185.9 236.4 186.7 236 187.4 235.9C188.3 237.1 188.9 238 189.4 238.5C190.1 239.6 190.9 240.4 191.8 240.9C192.8 241.7 193.8 242.1 195 242.1C196.3 242 197.3 241.6 198 240.9C198.3 240.5 198.6 240 198.9 239.4C199.4 238.7 199.8 238.2 200.1 237.9C200.4 238.5 200.9 238.9 201.7 239.2C202.3 239.4 203 239.5 203.6 239.4C204.8 239.3 206 238.6 207.1 237.3C207.7 237.9 208.7 238.2 210.1 238.2C210.7 238.3 211.7 238.2 213.1 238C213.3 238.1 213.8 238.1 214.7 238.2L218.4 239.1C220.7 239.7 222.4 240 223.5 240C224.8 240.2 225.9 239.9 226.7 239.3C227.2 238.7 227.4 237.8 227.3 236.7C227.4 235.2 226.9 234 225.8 233.4C225.5 233.2 224.7 233.2 223.4 233.2C221.7 233.1 220 233 218.4 232.8C217.2 232.7 216.3 232.5 215.7 232.1C215.5 231.8 215.2 231.1 214.7 230.2C214.5 229.5 214.1 229.1 213.6 228.9C213.1 228.7 212.5 228.7 211.8 228.9L210.3 229.5C209.8 229.4 209.1 229.4 208.3 229.3C207.5 229 206.9 229 206.4 229.1C205.7 229 205.1 229.3 204.5 230C203.9 230.4 203.6 230.9 203.6 231.5C203.2 231.5 202.9 231.5 202.7 231.4C202 229.9 201 228.8 199.8 228.3C199.2 228.1 198.5 228 197.9 228.1C197 228.4 196.4 228.7 196 229.2C195.5 229.7 195.2 230.6 195.1 232C194.9 233.4 194.8 234.4 194.6 234.9C194 235 193.5 234.7 193.1 233.9C192.8 233.5 192.4 232.8 192 232C191.6 230.7 191.3 229.8 190.9 229.3C189.9 228.5 189 228.3 188.1 228.5C187.4 228.6 186.7 229.1 185.8 229.9C183.8 231.8 182.3 232.8 181.2 233.2C179.9 233.6 178.4 233.7 176.6 233.7C173.7 233.5 170.8 233.1 167.9 232.5C167.1 232.2 166.5 232.1 166.1 232.3C165.7 232.3 165.5 232.4 165.3 232.6M209.9 197.3C209.4 198 208.9 199.2 208.2 200.9C207.9 201.6 207.5 202.4 206.9 203.4C206.3 204.6 206 205.6 206 206.3C205.8 207.3 206.1 208.2 206.8 208.9C207.5 209.8 208.3 210.3 209.1 210.2C210.1 210.1 211.1 209.5 211.9 208.1C212.1 207.7 212.2 207.2 212.3 206.6C212.6 205.8 212.7 205.2 212.8 204.8C213.1 203.7 213.7 202.2 214.6 200.5C214.9 199.8 215.1 199.4 215.4 199.3C215.8 199.1 216.2 199.1 216.6 199.5C217.1 199.9 217.5 200.4 217.8 200.9C218.7 202.8 219.2 205 219.3 207.4C219.4 208.3 219.4 209 219.3 209.3C219.6 210.2 220 210.7 220.7 210.8C221.4 210.9 221.9 210.6 222.4 210.2C222.7 209.7 222.9 209.1 222.9 208.4C223.5 206.2 223.4 203.9 222.7 201.4C222 198.7 220.8 196.6 219.2 195.2C218.2 194.5 217.1 194.1 215.9 194C214.6 193.8 213.4 194 212.4 194.5C211.6 195 210.7 196 209.9 197.3M180.9 198.7C180.1 199.6 179.6 201 179.4 203C179.3 204.8 179.7 206.1 180.4 206.9C180.7 207.1 181.2 207.4 182 207.7C182.3 208 182.8 208.5 183.4 209.2C184.1 209.6 184.7 209.8 185.3 209.8C186.1 210.1 186.8 210.1 187.3 209.8C188.2 209.4 188.9 208.7 189.2 207.9C189.5 206.9 189.6 205.9 189.6 204.9C189.7 202 188.8 199.9 187 198.6C186.3 197.9 185.3 197.5 183.9 197.5C182.8 197.6 181.8 198 180.9 198.7M237.7 276.2L238.6 274.7C238 275.2 237.6 275.6 237.2 275.9L236.6 276.7C237 276.6 237.3 276.5 237.7 276.2ZM230.3 228.5C230.2 227.8 230.1 227.4 230.1 227.3C229.8 226.9 229.6 226.7 229.4 226.7C229.1 226.6 228.8 226.8 228.5 227.2C228.1 227.3 227.9 227.4 227.6 227.6C227.2 227.5 227 227.4 226.9 227.2C226 227.3 225.2 226.9 224.6 226L222.8 223.6C221.8 222.1 220.2 220.6 218.2 219.1C217.9 218.5 217.5 218 216.7 217.6C216 217.4 215.1 217.3 213.9 217.3C211.4 217.2 209.3 217.5 207.4 218.2C206.8 218.5 206.3 218.7 205.7 218.9C205.5 218.8 205.3 218.8 204.9 218.7C204.7 219.1 204.5 219.5 204.2 220C202.5 222 201.9 223.7 202.3 225.3C202.6 226 202.9 226.5 203.5 226.8C204 227.2 204.6 227.2 205.1 226.8C205.5 226.7 205.7 226.4 206 225.9C206.1 225.7 206.1 225.6 206.1 225.4C206.6 225.5 207 225.5 207.3 225.6C207.7 225.5 208.1 225.2 208.5 224.7C209 224 209.4 223.6 209.7 223.5C210.5 222.8 211.4 222.5 212.4 222.4C212.7 222.4 213.1 222.5 213.8 222.6H214.1C215.3 223.7 216.1 224.5 216.5 225.1C216.9 225.3 217.8 226.4 219.3 228.5C220.1 229.7 221 230.7 221.9 231.5C223 232.5 224.3 233.1 225.9 233.4C227.3 233.7 228.5 233.5 229.4 232.8C229.8 232.3 230.2 231.5 230.5 230.3C230.5 229.7 230.4 229.1 230.3 228.5" fill="#0033FF"/>
  </g>
  <defs>
    <clipPath id="clip0_102_2">
      <rect width="271.6" height="285" fill="white"/>
    </clipPath>
  </defs>
</svg>
