
<svg xmlns="http://www.w3.org/2000/svg" viewBox="0 0 317.39 211.35">
  <path d="M138.41 198.14a3.11 3.11 0 0 1-.65.22c-4.45.4-8.9 1.12-13.36 1.12-5.17 0-10.34-.6-15.5-1-3.3-.27-6.6-.58-9.88-1-4.15-.57-8.33-1.11-12.1-3.15a49.8 49.8 0 0 1-4.78-2.94 48.5 48.5 0 0 1-13.28-14.27 131.34 131.34 0 0 1-10.28-19c-2.62-6.2-5.08-12.5-7.07-18.92a99.21 99.21 0 0 1-2.71-14 98.46 98.46 0 0 1-.75-18.88c.33-8.86.64-17.72 1.13-26.58.34-6.26 1-12.51 3.18-18.46A66.14 66.14 0 0 1 65.47 39a55.71 55.71 0 0 1 11.06-8.91 51.15 51.15 0 0 1 5.39-2.83A14.08 14.08 0 0 0 89.16 20a47.27 47.27 0 0 0 1.58-6h-2.49c-.74 0-1.2-.43-.79-1.22 1-1.93 2-3.86 3.08-5.75a1.4 1.4 0 0 1 2.31.2c.88 1.87 1.71 3.77 2.53 5.67.26.6.07 1-.67 1s-1.63.09-2.5.14c-.31 1.56-.57 3.2-1 4.8a14.1 14.1 0 0 1-7.11 9c-2.55 1.47-5.25 2.71-7.73 4.29A51.48 51.48 0 0 0 58.3 51.85a56.61 56.61 0 0 0-6 15.67 116.82 116.82 0 0 0-1.67 12.08c-.43 5-.65 10-.86 14.94s-.41 10.15-.36 15.22a142 142 0 0 0 .72 15.16A90.11 90.11 0 0 0 53 139.57a166.36 166.36 0 0 0 5.93 16.26 135.23 135.23 0 0 0 12.15 22.5 45.52 45.52 0 0 0 14.51 14.19 27.06 27.06 0 0 0 11.21 3.58c3.68.42 7.37.81 11 1.22 2.61.3 5.21.73 7.83.87 3.5.19 7 .29 10.51.17 3.26-.11 6.51-.57 9.77-.81a17.31 17.31 0 0 1 2.48.16z" fill="#00f"/>
  <path d="M88.37 40.86a14.86 14.86 0 0 1-2.26.46 5.67 5.67 0 0 1-1.53-.32c.19-.35.39-.69.56-1 .57-1.18 1.1-2.39 1.71-3.55a10.34 10.34 0 0 1 1.65-2.7c1.09-1 1.89-.84 2.71.48 1 1.59 1.91 3.23 2.8 4.87.57 1 .19 1.67-1 1.73h-3a16.61 16.61 0 0 0 .69 6.51c1.11 3.43 3.51 5.79 6.27 7.93a42.33 42.33 0 0 0 17.47 8.26c1.74.36 3.59.16 5.37.38 4.82.61 9.62 1.4 14.45 2a68.85 68.85 0 0 1 16.66 4.1 94.22 94.22 0 0 1 11.85 5.36 103.49 103.49 0 0 1 11.56 7.4 24.89 24.89 0 0 1 9.25 14.29c2.07 7.91 2.37 16 2.41 24.12 0 .19-.06.37-.39.69-.16-.31-.44-.61-.46-.94-.45-5.6-.74-11.21-1.31-16.8a36.23 36.23 0 0 0-3.92-13.35 23.74 23.74 0 0 0-8.06-8.51c-2.36-1.57-4.69-3.19-7.15-4.59s-5.28-2.59-7.88-4A60.57 60.57 0 0 0 144 68.84a87.26 87.26 0 0 0-8.66-1.73q-6.2-1.06-12.41-1.92a42 42 0 0 0-5.5-.35A27.09 27.09 0 0 1 106.24 62 51.37 51.37 0 0 1 99 58.27c-4.83-3.18-9.21-6.85-10.31-13a43.1 43.1 0 0 1-.32-4.41zm.18 24.59c-.81.07-1.71.18-2.61.23a1 1 0 0 1-.73-.24c-.16-.21-.29-.66-.17-.84a38.09 38.09 0 0 1 3.35-4.6c1.46-1.56 2.48-1.26 3.44.65.55 1.1 1.23 2.15 1.8 3.24s.27 1.39-.81 1.57a9.67 9.67 0 0 1-1.2.08h-1.39c.3 1.7.53 3.37.87 5 .9 4.32 3.83 5.86 7.61 6.09 2.79.17 5.6.2 8.39.17a50.92 50.92 0 0 1 19.56 3.91 48.75 48.75 0 0 1 10.66 6.5c2.28 1.68 4.55 3.38 6.9 5A16.27 16.27 0 0 1 150 98.3a71.09 71.09 0 0 1 3.4 6.68 22 22 0 0 1 1 5.63c.3 3.25.44 6.52.63 9.78a3.53 3.53 0 0 1-.09 1.07c-.15.55.11 1.46-.87 1.35-.15 0-.26-1-.28-1.54-.1-2.74-.09-5.49-.29-8.23-.13-1.82-.61-3.62-.79-5.44a17.73 17.73 0 0 0-2.61-6.87c-.61-1.08-1.39-2.06-2-3.14-1.48-2.68-4.1-4.09-6.42-5.81-2.69-2-5.49-3.84-8.19-5.82a35.78 35.78 0 0 0-9.33-4.77c-3.79-1.34-7.62-2.62-11.69-2.8-4.58-.2-9.18-.29-13.76-.44a12 12 0 0 1-5.46-1.57c-2.17-1.19-3.1-3.15-3.68-5.33-.47-1.72-.66-3.51-1.02-5.6zM246 124.12c1.74.18 3.6.34 4.51 1.76s2.45 2.39 3.67 3.57c2.38 2.3 4.39 8.37 2.3 12.22a9.31 9.31 0 0 1-5.14 4.43c-3.37 1.24-6.86 1.89-10.43.94-2.63-.7-5.12-1.81-6.71-4.1a13.56 13.56 0 0 1-2.51-8.08 3.09 3.09 0 0 1 .31-1.27c1.85-3.83 4.42-6.93 8.67-8.2 1.7-.52 3.51-.85 5.33-1.27zm4 2.86a5.19 5.19 0 0 0-4.71-1.41c-5 .68-8.94 2.92-11.35 7.54a5.68 5.68 0 0 0-.64 4.22c1.33 5.34 3.14 7.57 9.12 8.7 3.36.63 6.59-.42 9.52-2.07a8.82 8.82 0 0 0 2.87-2.8c2.12-3.26.74-9.34-2.59-11.74a39.29 39.29 0 0 0-3.66-2.11zM17.65 192.21c-5.89 0-9.49-2.86-11.33-8.27-1.78-5.23-.08-8.24 4.79-12.29a13.24 13.24 0 0 1 6-2.74 7.6 7.6 0 0 1 4.68.48 8 8 0 0 0 1.8.61c3.19.56 4.79 2.69 5.5 5.6.47 1.9.77 3.84 1.07 5.77.54 3.5-1 6.06-3.87 7.85s-5.62 3.15-8.64 2.99zm-.42-1.46c3.18.1 6-1.25 8.54-3.08 2.21-1.58 3.48-3.7 2.88-6.59-.33-1.6-.52-3.23-.87-4.83-.52-2.41-1.7-4.29-4.26-5-.53-.14-1.05-.3-1.56-.47a9.57 9.57 0 0 0-2.24-.72c-3.53-.21-6.49 1.35-9 3.62-2.85 2.61-4.83 5.65-3.13 9.86 1.9 4.65 4.2 7.26 9.64 7.21zm289.92-30.68c.82.63 1.69 1.25 2.49 1.94a5.12 5.12 0 0 1 1.57 5.13 21.16 21.16 0 0 1-1 3.55 7.54 7.54 0 0 1-3.82 4.26 15.74 15.74 0 0 1-12.85.55c-2.95-1.07-6.42-7-5.56-11.06.9-4.33 3.9-6.66 7.33-8.58a12.19 12.19 0 0 1 9.47-1.34c2 .56 3.12 2 3 3.79a8.51 8.51 0 0 1-.63 1.76zm-4.49-4.66a14.51 14.51 0 0 0-9.27 3.46c-1.91 1.58-3.64 3.25-4.05 6a8.78 8.78 0 0 0 7 10 14.21 14.21 0 0 0 3 .23c4.5-.17 8.77-1.52 10.12-6.79.57-2.22.86-4.25-1.18-5.89a5.47 5.47 0 0 1-.91-.95c-.68-.89-1.38-1.73-.91-3a1.75 1.75 0 0 0-1.2-2.39 22.27 22.27 0 0 0-2.6-.67zm-161.5 40c-.91-6.34 4-10.7 9.25-12.15a24.12 24.12 0 0 1 4.24-.64c4.07-.34 6.55 3 7.45 5.75.19.56.34 1.14.58 1.67 2.64 5.79 1.44 9.84-3.54 13.62a15.66 15.66 0 0 1-9.29 3.07c-4.22.1-8.46-4.19-8.68-8.64-.05-.99-.01-1.99-.01-2.68zm1.24.24c.1 1.35.14 2.71.33 4 .44 3.11 4.51 6.2 7.59 5.64a25.93 25.93 0 0 0 5.51-1.49c4.33-1.82 9-6.74 5.7-13.27a21.83 21.83 0 0 1-1.36-3 4.87 4.87 0 0 0-5.08-3.73 20.13 20.13 0 0 0-5.46 1.09c-5.28 1.98-7.38 5.28-7.23 10.76zm41.99-72.33c1.58.06 3.15.11 4.37 1.3.28.28.63.84.53 1.1-.38.93.24 1.27.75 1.77 1.32 1.28 2.6 2.59 3.87 3.91 3.27 3.4 2.11 9.35-1.41 12.2-6.13 5-14.63 2.43-18.91-2.27a10 10 0 0 1-2.62-6 3.67 3.67 0 0 1 .15-1.65c2-5.14 5.54-8.69 11-10.05a18.69 18.69 0 0 1 2.27-.31zm4.46 3c-1.71-2.39-4.13-2.1-6.26-1.52a14.26 14.26 0 0 0-9.48 7.81 6.24 6.24 0 0 0 0 5.95c2.74 5.34 11 8.51 16.88 5 4.82-2.86 5.92-8.71 2.11-12.32-.52-.49-.94-1.08-1.44-1.61-.73-.78-1.5-1.53-2.23-2.33-.31-.45-.6-.93.42-1.03zm-36.01 21.51c-5.94.3-10.36-4.36-10.2-9.05a18.6 18.6 0 0 0-.17-3.58 8.2 8.2 0 0 1 2.8-7.64 11.7 11.7 0 0 1 9-3.46c2.07.14 4 .66 5.29 2.54a1.06 1.06 0 0 0 .45.36c2.7 1.31 3.8 3.71 4.51 6.43 1.64 6.25-1.25 9.9-5.77 12.67a11.83 11.83 0 0 1-5.91 1.73zm-8.84-9.75v1a7.69 7.69 0 0 0 7.87 7.6 13.84 13.84 0 0 0 7.44-2.6c2.86-2.1 4.71-4.7 4.2-8.39-.47-3.46-1.3-6.8-5.08-8.28-.34-.13-.87-.65-.82-.76.36-.81-.27-.81-.69-1-3.4-1.26-6.45-.33-9.24 1.64-3 2.1-4.54 4.87-3.8 8.65a17 17 0 0 1 .12 2.14zm11.42 15.47A10.52 10.52 0 0 1 161 155a4.79 4.79 0 0 1 2.49 4.11 3.21 3.21 0 0 0 .35 1.33c1.34 2.35 1 7.19-.8 9.19a17 17 0 0 1-10.84 5.55 7.12 7.12 0 0 1-6.95-3.15 24.64 24.64 0 0 1-3.07-6.16c-.92-2.77.3-5.26 2-7.44 2.71-3.58 6.51-4.83 11.24-4.88zm7 5a4.13 4.13 0 0 0-2.89-3.08 13.09 13.09 0 0 0-11.59 1.33 8.93 8.93 0 0 0-4.62 7.51c-.09 2.69 1.45 4.82 2.92 6.92a5.71 5.71 0 0 0 6.13 2.53 17.37 17.37 0 0 0 8.49-4.16 7.32 7.32 0 0 0 .84-10.08 2.39 2.39 0 0 1-.26-.61zM88.89 91.24a124.11 124.11 0 0 1-.06 31.23c-.07-.12-.21-.23-.21-.35a95 95 0 0 1-.21-9.68A107.09 107.09 0 0 0 88 97.13c-.13-1.92-.28-3.83-.44-5.94-.76 0-1.53.06-2.3.11a11.57 11.57 0 0 1-1.42.1c-.71-.05-1.06-.52-.67-1.14a46.34 46.34 0 0 1 3.34-4.93c1.25-1.48 2.81-1.33 3.89.25s1.8 3 2.7 4.48c.48.8.1 1.14-.66 1.17-1.09.05-2.16.01-3.55.01zm37.91 34.81c1.66-.29 3.38-.19 4.59 1.46a77.56 77.56 0 0 1 4.86 6.77 7.36 7.36 0 0 1-.35 7.56 13.21 13.21 0 0 1-11.65 7c-3.87.11-8.47-3.43-9-6.9-.3-1.79-1-3.64-.78-5.39a11.83 11.83 0 0 1 6.32-9.3 10.54 10.54 0 0 1 6.01-1.2zm-11.18 12c.19.82.53 2.37.91 3.91a7.89 7.89 0 0 0 8 5.61 12.09 12.09 0 0 0 10.33-6.88 6.25 6.25 0 0 0 0-6.3c-1.15-1.9-2.66-3.58-4-5.38-1-1.34-2.06-2.43-4-1.87a3.2 3.2 0 0 1-1.07 0c-5.08-.26-10.12 4.93-10.17 10.86zm104.6-9.12c-.44-3.25-2.71-4.8-5.93-4.31a10.35 10.35 0 0 0-8.94 8.34c-1 4.81 3.19 11.59 9.25 11.22 1.81-.12 3.65.21 5.38-.62a5.89 5.89 0 0 0 1.5-9.73c-.85-.77-1.76-1.5-2.6-2.29a5.05 5.05 0 0 1-1.3-1.76 3 3 0 0 1 1.08.31c1.5 1.18 3 2.41 4.43 3.64 3.87 3.28 1 10.17-2.6 11.22-6.09 1.76-12.29.25-15.42-5.63a10.87 10.87 0 0 1 8.05-15.72c2.73-.42 5.28-.18 7.26 2 1.22 1.4 1.17 2.07-.16 3.33zm-118.84 6.69c.42 7.64-4.32 13.45-10.55 14.21a9.91 9.91 0 0 1-5.72-1.37 13.32 13.32 0 0 1-7.8-11.72A6.28 6.28 0 0 1 78 134c1.47-3.38 3.59-6.13 7.4-7.05a41.1 41.1 0 0 1 5.23-1.07 6.76 6.76 0 0 1 5 1.8 1.37 1.37 0 0 0 .39.27c4.4 1.34 4.82 5.12 5.36 7.67zm-10.3-9c-3.93.4-7.45 1.29-10 4.32-2.06 2.45-3.43 5.23-2.26 8.49 1 2.7 2.22 5.36 4.81 7s5 2.9 8.18 1.9a11.73 11.73 0 0 0 7.9-14 10.72 10.72 0 0 0-2.55-4.62c-1-1.08-2.9-.95-3.9-2.45-.32-.49-1.52-.43-2.18-.59z" fill="#00f"/>
  <path d="M168.94 152.58a9.64 9.64 0 0 0 1.19-6.66 82.17 82.17 0 0 1-1.64-17.7 136.71 136.71 0 0 1 1.51-17.86c0-.29.42-.53.64-.79.18.3.54.62.52.9-.24 2.54-.56 5.07-.84 7.61a103.17 103.17 0 0 0 0 20.79c.23 2.41.84 4.78 1.19 7.19a10.7 10.7 0 0 1-1.08 6.74 1.25 1.25 0 0 0 .46 1.95c.26.17.62.37.69.63s0 .89-.19 1c-1.38.5-2.78 1-4.2 1.33-.77.19-1.38-.16-1.29-1.08a33.68 33.68 0 0 1 .49-4c.27-1.29.45-1.31 1.58-.59.24.11.52.27.97.54zM18.51 130.21c-.76 0-1.39-.1-2-.1-1 0-1.52-.49-1.1-1.37 1-2.07 2.08-4.11 3.21-6.12.51-.89 1.18-.82 1.65.08 1 2 2.05 3.94 3.05 5.93.48 1 .21 1.44-.85 1.52a12 12 0 0 1-1.79-.07c-.72-.06-1 .22-1 1-.14 6-.29 12.05-.52 18.08-.22 5.78-.54 11.56-.82 17.46-1.08-.4-1-1.16-1-1.83.1-2.35.28-4.7.35-7.05q.42-13.24.79-26.48c.04-.26.03-.59.03-1.05zm280.04-10.48a9.45 9.45 0 0 1-1.74.16c-.46 0-1.1-.18-1.29-.49a1.66 1.66 0 0 1 0-1.46c.64-1.14 1.51-2.15 2.17-3.28a1.62 1.62 0 0 1 2.23-.73 7.58 7.58 0 0 1 4 3.57 1.06 1.06 0 0 1-.28 1 12 12 0 0 1-2.77 1c-.67.13-1 .24-.93 1 .33 5.29.56 10.6 1 15.89.26 3.44.81 6.86 1.11 10.29a20.27 20.27 0 0 1-.18 3.81c0 .3-.39.55-.6.83-.2-.34-.57-.68-.57-1 0-2.14.15-4.28.11-6.42a17 17 0 0 0-.56-2.77 24.84 24.84 0 0 1-.44-2.94c-.47-6.1-.81-12.19-1.26-18.46zM139.36 118c.26.39.69.74.75 1.16a75.31 75.31 0 0 1 .36 21.36c-.45 3.29-.72 6.59-1 9.89-.07.77 0 1.55 0 2.33l.32.08c.41-.46.84-.91 1.24-1.37.51-.61 1-.7 1.37.09.57 1.3 1.08 2.64 1.57 4a.81.81 0 0 1-.2.73 4.24 4.24 0 0 1-3.85 1.14 3.38 3.38 0 0 0-.7-.16c-1.63 0-2-.62-1-2a2.37 2.37 0 0 0 .31-2.42 5.49 5.49 0 0 1-.18-2.33c.5-5.76 1.12-11.51 1.51-17.28a55.42 55.42 0 0 0-.25-7.28c-.15-2.58-.39-5.15-.59-7.72zm-22.54-8.57c2.18 4.79 4.25 9.32 6.33 13.86l-.5.41c-.37-.27-.9-.47-1.08-.83-1.55-3.19-3-6.41-4.53-9.62-.45-1-.85-2-1.32-3l-3.53 1.93a1.58 1.58 0 0 1-2.33-.81 1.41 1.41 0 0 1 .49-1.22 36.54 36.54 0 0 1 3.26-1.76q3.39-1.75 6.81-3.47c.72-.36 1.42-.76 2 .38s.09 1.54-.88 2c-1.54.54-2.98 1.29-4.72 2.13zm-6.43-16.77l3.93-4.84c.89.51.85 1 .43 1.5-1.21 1.58-2.4 3.18-3.65 4.86 1 1.62 1.87 3.24 2.83 4.84.4.66.58 1.23-.49 1.83-.52-.87-1-1.72-1.56-2.58l-1.57-2.7-4 5.83c-.31.46-.57 1.08-1.28.63-.54-.34-.51-.76-.12-1.3 1.4-1.94 2.72-3.94 4.12-5.88a1.3 1.3 0 0 0 0-1.7c-1-1.48-1.93-3-2.84-4.54-.15-.25 0-.65-.07-1 .34.13.81.16 1 .41.87 1.19 1.65 2.44 2.48 3.66.28.32.53.65.79.98zM262.74 101c1.1-1.08 2.17-2.21 3.33-3.24.29-.26.86-.2 1.3-.29-.11.38-.1.9-.35 1.13-1.26 1.16-2.59 2.24-3.76 3.24 1.72 3.23 4.07 5.39 5.1 8.33l-.24.3c-.39-.18-.93-.24-1.14-.55-1.46-2.12-2.85-4.3-4.39-6.63-.52.49-1 .91-1.44 1.39-.8.89-1.52 1.86-2.37 2.69-.24.24-.81.13-1.24.18 0-.37-.06-.88.14-1.1 1.29-1.47 2.65-2.87 4.1-4.41l-4.24-5.18a1.2 1.2 0 0 1 1.88.24c1.12 1.24 2.21 2.55 3.32 3.9zm-47.3-.09c-1.33 1.5-2.55 2.82-3.69 4.2-.43.52-.84 1.2-1.5.65s0-1.16.44-1.56c1.36-1.3 2.76-2.54 4.29-3.94l-3.7-4.44c-.16-.19-.38-.33-.47-.54a11.52 11.52 0 0 1-.43-1.21c.49.11 1.14.07 1.44.37 1.19 1.23 2.27 2.57 3.39 3.87.15.18.28.38.45.62 1.58-1.07 2.57-2.92 4.4-3.55l.28.34-3.91 4.2c1.34 1.85 2.67 3.64 3.95 5.46a3.8 3.8 0 0 1 .38 1.09c-.46-.07-1.12 0-1.36-.24-.89-1-1.63-2.15-2.44-3.25zm-43.96-1.06c-1.1 1.5-2 2.7-2.88 3.94-.38.54-.79.87-1.37.44s-.17-1 .16-1.42c.85-1.16 1.65-2.36 2.57-3.45.65-.78.42-1.33-.12-2-.9-1.07-1.78-2.15-2.6-3.27A2.8 2.8 0 0 1 167 93c.39.11.93.1 1.15.36 1.08 1.26 2.08 2.6 3.19 4 1-1.14 1.9-2.2 2.87-3.18.25-.24.78-.2 1.17-.28 0 .4.05.92-.17 1.19-1 1.23-2.08 2.4-3.1 3.56 1.32 1.92 2.58 3.7 3.77 5.53a4 4 0 0 1 .29 1.43 4.94 4.94 0 0 1-1.44-.95c-1.09-1.53-2.11-3.13-3.25-4.81zM259 112.82a6.73 6.73 0 0 1-1.5-.76 6 6 0 0 1-.85-1.27c.46-.09 1-.37 1.36-.24a14.83 14.83 0 0 1 2.66 1.29c1.29.78 2.54 1.6 3.74 2.49.33.24.4.82.58 1.25a3.76 3.76 0 0 1-1.27-.09c-1.12-.49-2.2-1.09-3.47-1.74-1.28 1.71-2.59 3.45-3.89 5.21-1.11 1.5-2.18 3-3.33 4.51-.2.26-.74.25-1.12.36 0-.39-.11-.89.08-1.16 2.28-3.26 4.61-6.49 7.01-9.85zm-117.53.88c-1.29-1.44-2.58-2.89-4-4.53-.72 1.21-1.35 2.34-2.07 3.41a3.72 3.72 0 0 1-1.12.72 4.14 4.14 0 0 1 .09-1.28 10.41 10.41 0 0 1 .93-1.53c1.5-2.42 1.5-2.42-.29-4.71-.62-.78-1.29-1.53-1.86-2.34a3 3 0 0 1-.26-1.1c.41.13.95.15 1.19.42.88 1 1.66 2.15 2.47 3.24.26.34.52.69.89 1.2.87-1.25 1.66-2.43 2.51-3.55.21-.27.65-.37 1-.55 0 .35 0 .76-.12 1-.71 1.16-1.53 2.24-2.22 3.41a1.31 1.31 0 0 0 .06 1.19c.92 1.24 2 2.4 2.91 3.63a4.12 4.12 0 0 1 .45 1.17zm72.95-2.61h-3.15c-.39 0-.76-.38-1.14-.58.31-.2.61-.56.93-.57 2.5-.12 5-.21 7.52-.21.41 0 .82.47 1.23.73-.44.25-.86.68-1.31.72a15.9 15.9 0 0 1-2.57-.22v10.29c-1.16.11-1.33 0-1.4-.89-.07-1.08-.1-2.15-.11-3.23-.01-2.01 0-3.99 0-6.04z" fill="#00f"/>
</svg>
