
<svg xmlns="http://www.w3.org/2000/svg" viewBox="0 0 271.6 285"><path d="M71.1 136.1c-.8-1.3-1.7-2.1-2.5-2.3-1-.4-2-.4-2.9-.2-1 .3-1.9.8-2.7 1.5-.9.9-2 2.7-3.1 5.3-.7-1.4-1.9-2.3-3.6-2.7-1.4-.4-3-.2-4.6.5-2.4 1.2-4.2 3.6-5.3 7.1-.1-1.2-.7-2.3-1.9-3.2-1-.9-2.2-1.4-3.5-1.4-1.2.1-2.3.6-3.3 1.5-1 1-1.6 2.1-1.6 3.3-.5-.7-1.2-1-2.3-1.1-.8-.1-1.6 0-2.3.2-1.3.6-2.5 1.8-3.7 3.6-.9 1.3-1.5 2.1-2 2.3-.3.4-.8.7-1.4 1-.8.2-1.4.4-1.9.6-1.3.5-2.3 1.4-3.2 2.6-.8 1.2-1.3 2.6-1.5 3.9-2.3-.1-4.3.7-5.8 2.5-1.7 1.9-2.3 4-1.8 6.4-1.3-.1-2.4.5-3.3 1.5-.8.9-1.3 2-1.7 3.3-.3 2.1.3 4.5 1.8 7.2-1.8.9-2.9 2.5-3.6 4.8-.3 2.1.1 4 1.2 5.7-1.3.8-2.3 2-2.8 3.6-.5 1.8-.4 3.3.2 4.7-1 1.9-1.2 4.1-.6 6.4.4 2.4 1.6 4.1 3.5 5.2-.8.6-1.5 1.3-2.1 2.2-.3.8-.4 1.7-.3 2.6-.1 1 .3 1.9.9 2.6.6.9 1.3 1.5 2.2 1.8-1 .6-1.7 1.4-2.2 2.6-.6 1.3-.6 2.5-.1 3.6.3 1.1.8 2 1.6 2.7.9.7 2 1.1 3.2 1.1-.2 1.5 0 3 .5 4.3.7 1.4 1.5 2.5 2.6 3.3 1.3.8 2.7 1.2 4.3 1.2.6.1 1 .1 1.2-.2l.1.2c.6 3.7 1 6.9 1.3 9.4.2 1.8.3 2.9.4 3.3l2.2 8.4c.2.6.3 1 .4 1.2l1.1 10c.2 1.4 0 2.4-.4 2.9-.2.4-.3.6-.5.8 0 .2 0 .3.1.5.1 1.1.4 1.9.8 2.2.4.5 1 .9 1.9 1.1 1 .3 2.6.3 4.6 0 1.2-.1 2.2-.3 2.9-.6h.2c.5.2 1 .1 1.5-.2.4-.4.7-.7 1-1.1.3-.5.4-1 .4-1.4-.1-.3-.2-.8-.4-1.5-.3-.7-.6-1.2-.8-1.5-.2-.6-.4-1.5-.5-2.8-.4-3.3-.8-6.5-1.4-9.7.2-.1.6-.2 1.1-.2-.3-.8-.5-1.4-.7-1.7-.1-.3-.1-.6-.1-1l-.3-2.6c-.3-.4-.5-.7-.5-1-.2-.3-.3-.6-.3-.9.2.3.4.6.5.9l6 5.2 1.1 1.1c.2.3.5.5.9.6.2.4.4.6.5.7.5.6.9 1 1.2 1.2.4.3.8.5 1.1.7 1.8 1.7 3.5 2.9 5.1 3.6.4.1.8.3 1.3.6.6-.1 1.3-.1 2.2 0 1.8.3 4.5 1 8.1 2 2.1.5 4.9.7 8.4.9 3.4.1 9.1-1.1 17.2-3.6 8-2.7 13.9-6.8 17.7-12.4 1.9-2.9 3.4-6.4 4.5-10.3l.1.2c-.1.7-.2 1.8-.2 3.3.1.6.2 1.5.3 2.6.2 1.4.3 2.4.3 2.9-.2.5-.2 1.1-.2 1.8-.1.7-.1 1.1-.1 1.4.1.7.4 1.2.8 1.7.4.3.7.6 1 .9.3.3.5.5.8.9.7 0 1.5-.1 2.6-.3.8-.1 2-.5 3.5-1.1.5-.1 1.2-.1 2.1-.2 1-.3 1.7-.5 2.2-.8 1.2-.8 1.7-1.8 1.5-2.9.2-.6 0-1.1-.4-1.5-.4-.7-.9-1-1.5-1.1v-.2c-.4-3.7-1-8.2-1.8-13.7 0-.2 0-.4-.1-.7 0-.2.1-.5.2-.8.3-1.3.3-3.3.2-5.9l-.1-2.7 1.2-.3c.4-.4.9-1.1 1.5-2.1 1.3-2.6 1.7-4.8 1.2-6.7 2.5-.7 4.5-1.5 5.9-2.6.4-1.2.7-2.6.8-4.3.2-1.1.1-2-.2-2.7l-.5-.5c-.1-.3-.2-.6-.5-1 0-.3.1-.6.2-1-.4-.3-.9-.5-1.4-.8 1.7-2 2.5-3.6 2.3-5-.1-.4-.2-1-.5-1.9-.5-1.1-1-1.7-1.5-1.9 0-.2-.1-.2-.3-.2.2-.2.4-.5.5-.9.9-2.7.8-5.4-.5-8.2-1.3-2.9-3.2-5-5.8-6.3.6-2.8.7-5.1.2-6.8-.3-1.1-.8-2.1-1.5-3-1-1.1-2-1.7-2.9-1.9.3-1.8-.3-3.5-1.8-5-1.7-1.7-3.4-2.4-5.3-2 .4-2.1-.3-4.1-1.9-5.8-1.7-1.8-3.5-2.5-5.6-2.3.3-1 .2-2.1-.3-3.2-.4-.9-1-1.6-1.8-2.2-.9-.7-1.9-1.1-2.8-1.2-1.1-.1-2.1.1-2.9.5-.3-2.9-1.2-5-2.6-6.2-.8-1-1.8-1.5-3.1-1.7-1.2-.2-2.2.1-3.2.8-.3-1.2-.9-2.2-1.8-3.2-1.1-.8-2.2-1.3-3.3-1.5-1.4-.2-2.7.1-3.9.6-1 .6-1.9 1.4-2.6 2.5-.9-1-1.5-1.9-2-2.4m-7 47h.2c.3.6.7 1.2 1.3 1.6.9.9 1.9 1.5 2.9 1.8 1.2.6 2.7.7 4.5.5 1.9-.2 3.8-.7 5.7-1.4.1-.2.3-.3.5-.3l.9 1.4c1 1.5 1.9 2.4 2.7 2.6.8.6 1.8.9 3 .9 1.5-.2 2.8-.5 3.9-.9.3.1.6.3.9.7.5 1.3 1.1 2.7 1.7 4.2.9 1.9 1.8 3 2.8 3.3.5.3 1.4.5 2.8.5.2.1.4.2.9.4.1.6.2 1.5.3 2.6.4 1.1 1 2.1 1.9 2.9 0 .4.1.7.3 1l.2 3.3c.2 1.3.3 2.5.4 3.4l-5.7 10c-.6.9-1 1.5-1.1 1.9-.1.4-.1.8-.1 1.1-.2.4-.3.7-.5 1.1-.4.6-.6 1.1-.5 1.6.1.3.3.6.8.8.4.1.7.1 1-.2.2 0 .5-.3 1.2-.9.2-.3.3-.4.5-.4 1.6-1.2 3.4-2.6 5.3-4.2 0 .2-.1.4-.2.6.1.7.2 1.7.3 2.9l.2 1.4c.1-.2.3-.3.5-.5-.1.9-.2 1.7-.2 2.6-.1.7-.2 1.4-.2 2.2-.1.5-.2 1-.4 1.5 0 .5-.2 1-.5 1.5-.1.5-.3 1-.5 1.7-.5 1.9-.9 3.3-1.3 4-.4.7-.8 1.4-1.2 2.2-1.2 3.6-2.9 6.5-5 8.8-3.2 3.6-7.7 6.1-13.6 7.5-2.4.6-5.1 1.1-7.9 1.4-2 .2-4.6.3-8 .4-4.4.1-7.6 0-9.5-.4-2.4-.6-4.8-1.6-7.2-3.1-1.8-1.1-4.1-2.8-6.7-5-2.1-1.5-3.8-2.8-5-4-.4-.5-.7-.9-.9-1.2-.4-.3-.7-.5-.9-.5-.6-.5-1.1-.9-1.6-1.4 0-.2-.1-.4-.4-.9l-.9-1.3c.2-.1.3 0 .5.1-.2-.3-.4-.6-.6-1.1-.5-.8-.8-1.8-1.1-2.9-.2-1.2-.3-2.3-.5-3.2-.2-.5-.5-1.2-.9-2.2-.1-.3-.2-.6-.3-.8.9.3 2 .6 3.3.9 2 .6 3.1.9 3.5 1l2.4 1.2c1 .4 1.8.4 2.4.1.3-.3.5-.5.5-.6.4-.1.6 0 .8.2.3-.9-.3-1.9-1.8-2.9-3-2.4-5.7-4.4-8.1-5.8-.2-.2-.3-.4-.3-.5-.2-.2-.6-.5-1.3-1.2-1.3-1.3-2.5-2.9-3.7-4.7-.3-3.9-.3-7.8-.2-11.7.1-2.1.2-4.1.2-6 2.7-.1 5-1.1 6.8-3.1.8-.9 1.5-2 2-3.3.4-1.2.5-2.5.4-3.7l.6-.5c.7-.3 1.5-.4 2.4-.3 1.3 0 2.3-.2 2.9-.5.8-.5 1.3-1.2 1.7-2.2.2-.3.3-.7.4-1.4.5-.1.9-.2 1.2-.4h.2c.2-.1.3-.1.5-.1.7.1 1.4.1 2.2 0 1.2 0 2.4-.3 3.5-.9.4-.2.9-.5 1.5-.9.6-.3 1-.4 1.3-.4.4-.1.8 0 1.2.1.3.2.7.3 1.3.4 1.3.5 2.6.3 3.9-.7.5-.4.9-.7 1.1-.9.4-.2.9-.4 1.4-.7-.2-.2.3-.2 1.1-.1m-49.9 15.5l-.2.2v-.2h.2m-1.7 13.1c.1.4.1.6.1.9-.2-.1-.3-.2-.5-.2.1-.2.2-.5.4-.7m11 24.9c.3-.1.6 0 1 .2.8.4 1.3 1.5 1.5 3.3l1.9 18.1c.2.2.4.3.6.2-.1 2.4 0 5.8.4 10.1 0 1.5.1 2.7.2 3.6-1.3.3-2.1.5-2.5.5l-1.2-6.4c-.2-1.8-.3-3-.4-3.9-.1-2.1-.2-3.3-.2-3.4l-.5-3c-.3-.7-.4-2-.5-4-.1-2.4-.4-4.8-1-7.2-.1-.5-.2-.7-.4-.9-.1-.2-.2-.2-.3-.2l-.4-3.5c-.2-1.4.1-2.4.7-3 .4-.2.8-.5 1.1-.5m88.3-16.7c.1 1 .1 2.1.1 3.3-.3.4-.3.9-.2 1.5-.2.7 0 1.2.4 1.5.3 2.6.4 5.6.4 9.1.4 6.1.8 11.3 1.2 15.5.1.3.2.5.3.7l-1.6.2-1.2-14.2c-.4-3.6-.9-7.1-1.7-10.6-.1-.6-.2-1-.4-1.2l-.5-5.3c-.3-1.4-.2-2.5.5-3 .2-.4.6-.6 1.2-.6.4-.1.6.1.9.4.2.2.3.5.5 1.1-.1.4 0 1 .1 1.6m-31.4 30.9c2-1.6 3.8-3.8 5.5-6.6 1-1.8 2.3-4.5 3.9-8 1-2.6.9-4.3-.5-5.1-.5-.3-1.4-.2-2.7.1-11.4 2.8-23.1 4.8-35.2 6-2.3.3-3.7.8-4.3 1.7-.6 1.1-.6 2.3-.1 3.7.5 1.1 1.4 2.2 2.7 3.3l5.1 4.8c2 1.9 3.7 3.1 5.1 3.9 2.2 1.2 5 1.6 8.4 1.2 4.9-.4 8.9-2.1 12.1-5m.6-7.8c-1.2 1.9-3.3 3.3-6.3 4.3-1.9.9-3.7 1.3-5.5 1.4-2.9.2-5.7-.6-8.3-2.2-2.6-1.7-4.5-3.9-5.7-6.7 5.4-.3 10.7-1 15.9-2.1 4.4-.8 6.7-1.2 6.8-1.2 2.6-.3 4.8-.4 6.7-.3l-2.4 4.4c-.5 1.4-1 2.2-1.2 2.4m3.9-38.6c-.7.1-1.4.1-2.1.2-1.3.2-2.2.3-2.7.3-1.9.2-3.3.6-4 1.1-.6.4-1.2 1.1-1.7 2.1-.7 1.3-1.1 2.8-1 4.5 0 1.7.4 3.2 1.2 4.6.2.3.4.5.5.6.4.1.6.1.8-.1l.2-.5c.1-1 .5-1.6 1.5-1.9.2 0 1.1-.1 2.7-.3 1.1-.1 2.7-.7 4.9-1.8l3.5-1.5c.9-.3 1.6-.7 2.1-1.2.6-.8.9-1.7.8-2.6-.3-.7-.7-1.4-1.3-2.2-1.1-1.1-2.7-1.5-4.7-1.4-.4.1-.6.1-.7.1m-41.7 5.2c-1.2.2-2.2.3-2.9.3-1.1.1-2 .4-2.6.8-.9.4-1.7 1.1-2.2 2-.5 1-.6 1.9-.3 2.9.3 1.2 1.1 2 2.4 2.4.9.5 2 .7 3.5.7 3.4.3 6.7-.1 9.9-.9 1.2-.3 2.1-.2 2.7.3.2.1.4.5.9 1.2.3.7.6 1.1.9 1.2.6-.4 1.1-.9 1.5-1.5.2-.7.2-1.3 0-2-.2-1.2-.9-2.6-2.1-3.9-1.9-1.7-3.9-2.9-6-3.5-1.1-.4-2.9-.3-5.7 0m65.4-163.2c-.6-2.4-1.1-4.4-1.7-6.2-1.3-3.1-2.9-4.8-4.6-5.2l-.3-.1c-1.8-2.1-3.7-4.1-5.7-5.9-.7-.6-1.5-1.2-2.5-1.8-.8-1-1.7-2-2.7-3-3-3-5.8-5.3-8.3-7-3.2-2.1-6.5-3.4-9.8-3.9-2.4-.3-5.4-.2-9 .4-2.3.4-5.4 1.1-9.4 2.1-6 1.4-10.7 3-14.3 4.6-3.8 1.5-7 3.5-9.5 6l-.2-.1c-.4.2-.8.4-1.4.6-4.1 1.5-8.1 4.4-12.1 8.6-1.2 1.2-2 2.4-2.3 3.4-.2.2-.4.9-.5 2.1-.1 1.1-.3 1.9-.5 2.5-.3.5-.6 1.1-1 1.8-.6.8-1 1.4-1.2 1.6-.5.9-.8 2.4-.9 4.3-.1 2.2-.2 3.6-.3 4.4-.3.9-.8 1.9-1.5 3.2-.1.5-.2.9-.4 1.2-1.9.6-3.7 2.7-5.4 6.3-1 2.1-1.6 3.6-1.9 4.7-.6 1.8-1 3.4-1 4.9-.1 1.9.5 4.7 1.6 8.3.6 1.9 1.1 3.3 1.4 4.3.8 1.6 1.8 2.7 3 3.4 1.3 1.1 3.1 1.6 5.3 1.5 1.2 0 2.7-.2 4.4-.6l-.1.2c-.1 3.2.3 6.2.9 9.1.8 3.2 2.2 5.9 4.2 8 1.6 1.6 3.6 3 6 4.3 2.5 1.3 5.5 2.5 9 3.3.4.2 7.1 1.5 20.3 4.1 22.6 2 34 2.7 34.1 2.2 1.8-.6 3.5-1.4 5.2-2.3.1-.3.1-.6.1-.8.1-.3.2-.6.5-1l.6-1.2c.3-.4.5-1 .6-1.9.7-2.7 1.3-4.7 1.6-6 .6-1.8 1-3.3 1.2-4.7-.4-1.4-.5-2.9-.5-4.4h.2c2 1.3 3.9 2 6 2.1 2.2-.1 4.4-.9 6.7-2.4 2.1-1.4 3.8-3.3 5.1-5.8 2.2-3.6 3.6-7.4 4.1-11.5.3-3.3 0-5.9-.9-8.1-.7-1.2-1.6-2.4-2.6-3.5-1.2-.8-2.4-1.3-3.7-1.5-1.2-.2-2.3.1-3.3.6.7-3.9 1-7.7.7-11.5-.5-4.7-1.5-9.3-3.3-13.7m3.8 33.3c.9-1 1.6-1.6 2.2-1.9 1.1 1.4 1.5 3.5 1.2 6.4-.5 2.7-1.4 5.2-2.8 7.6-1.3 2.6-2.9 4.4-4.6 5.3-1 .6-2.1.8-3.3.7-1.3.1-2.5-.2-3.6-.9-.1-.2-.4-.4-.9-.6 0-.2 0-.4.1-.5.1-.4.1-.6.1-.8 3.2-4.7 5.8-9.5 7.9-14.3.6.6 1.2.7 1.9.5.3-.1 1-.6 1.8-1.5m-72-33.9c2.7 3.1 5 5.1 7 6 1.1.7 2.5 1.3 4.3 1.9 1.2.8 2.4 1.4 3.6 1.8 1.2.3 2.8.4 4.6.3 2.1.6 3.7 1.1 4.9 1.5 1.7.2 3.2.1 4.7-.5.7-.1 1.3-.4 1.9-.9.5.1 1 0 1.3-.1 4.5-.7 9.6-3 15.3-6.7 1.8-1 3-2 3.7-3 .3-.4.7-.9 1.3-1.5.2-.7.5-1.2.8-1.5l.4-.5v.3c0 1.1.1 2.5.2 4.3.3 4.6.5 8.2.7 10.7.5 3.8 1.3 7.2 2.5 10.2 1.1 3.1 2.7 4.9 4.7 5.5-.6 1.5-1.2 3.1-1.9 4.6-.1.5-.2 1-.5 1.5-.2 1.3-.5 2.8-1.1 4.4L94 100.7v.4c-.1.2-.1.3-.1.5l-.8 2.2c-.1.9-.3 1.7-.6 2.4-.2 0-.3.1-.3.2 0 .2-.1.5-.4.8-.4.7-.6 1.2-.7 1.5 0 .3 0 .6-.1.9-.1.4-.1.7-.2 1.1-.2 1.3-.8 2.4-2 3.3-.3.1-.6.1-.9.1-.2 0-.3.1-.4.3-.2.3-.3.7-.4 1.2-1.1.2-2.3.4-3.6.6-1.4-.2-3.4-.3-5.9-.4-10-.8-21.5-2.4-34.5-4.9-5.7-1-10.1-2-13.2-3.2-1.8-.6-3.1-1.3-4-2.1-3-2.2-4.5-6.6-4.3-13.2-.1-1.1 0-2.1.1-2.9.3-.7.3-1.4 0-1.9l.1-.2c-.1-1.1-.1-1.8-.1-1.9-.2-2.4-.6-4.5-1.2-6.2l.3.1c-2-6.7-2.5-13.4-1.6-20.1.1-.2.1-.3.1-.5-.2-3.1.2-6 1.2-8.8.5-1.2 1.5-3.1 3.1-5.5 1.1-1.8 2-3 2.5-3.8 1.2-1 2.1-1.8 2.7-2.5.7-.8 1.3-1.3 1.9-1.7 1.5 1.9 2.9 3.2 3.9 4 .8.8 1.7 1.4 2.6 1.9.7 1 1.8 2.2 3.2 3.4M10.9 65.5c.3 1.8.7 3.8 1.3 5.9-.1.4 0 .6.2.8.2 2.6.5 5 1 7.4.4-.2.7-.3.9-.5.4.1.6 0 .9-.2.2.2.2.4.2.5.7 1.8 1 4 1.1 6.7v.1c-.2 0-.4.1-.9.2-1.4.5-2.2.7-2.4.7-1.4.5-2.6.6-3.6.3-.3-1.4-.1-2.9.8-4.3l-.2-.3c-.2.2-.3.4-.3.5-.1.7-.3 1.5-.6 2.4-.1.5-.2 1-.2 1.5-.2-.2-.4-.4-.7-.6-1.7-2.7-2.5-5.9-2.6-9.4-.3-3.2.2-6.4 1.5-9.4.5-.7 1-1.4 1.6-2 .7-.6 1.4-.7 2-.3m39.4 2.7c-.1-.4-.5-1.1-1.1-1.9-.7-.8-1.1-1.4-1.2-1.7-.5-1.3-1-2.1-1.5-2.6-.4-.8-1.1-1.1-2-1.1-1-.1-1.9.1-2.5.7-1 .8-1.5 2-1.5 3.7-.5 3.6.4 6.7 2.6 9.5 1.5 1.7 3 2.5 4.6 2.2.9-.3 1.5-.9 2-1.9.5-.7.8-1.6.9-2.7.4-1.5.3-3-.3-4.2M75 78.3c1.2-.9 2.3-2.4 3.1-4.5.3-1.4.5-3.1.6-5-.2-1.7-.5-3.1-1.2-4.3-.5-.5-1-.9-1.6-1.2-.7-.5-1.3-.5-2-.2-1.1.2-2.1 1-2.9 2.3-1.8 3.3-2.4 6.6-1.9 10.1.2 1 .5 1.8 1 2.4.6.6 1.3 1 2.1 1.1 1.1.2 2-.1 2.8-.7M35.4 92.4c.5 1.1 1.2 2.6 2.2 4.4l1.5 2.5c.1.5.3 1 .5 1.4.5.4.9.7 1.4 1 3.8 2.5 7.5 3.9 10.9 4.4 1.5.2 3.4.3 5.4.2 1 .1 2.7.1 5.1-.2.7.1 1.8.1 3.3-.1 1.3-.1 2.3-.1 3.1-.2.9-.2 1.8-.4 2.7-.9.9-.9 2-1.6 3.3-1.9 1.1-.4 1.8-.6 2.2-.9h.2c.3-.3.7-.7 1.3-1.2.4-.3.8-.7 1.2-1.2.4-.7.9-1.4 1.5-2 .2.4.2.8.2 1.2.2 1.2.6 2.1 1.1 2.5.3.6.8.9 1.5 1 .7-.1 1.3-.2 1.8-.5.6-.5 1-1.1 1-1.8.1-.6 0-1.1-.2-1.7l-.6-.6c-.3-.4-.5-.8-.6-1.2-.3-.4-.6-1.1-.8-2.1-.2-1.1-.3-2.1-.2-2.9.1-.9.1-1.6 0-1.9-.2-.4-.4-.7-.6-.9-.3-.2-.6-.2-.9-.1-.3.1-.5.4-.7 1-.3.9-.5 1.8-.6 2.6-.2 0-.3.1-.3.2-.4.1-.7.3-1.2.6l-19.6-.6c-4.6-.1-8.1-.2-10.2-.5-1.4-.4-2.6-.6-3.5-.7-1.3-.3-2.5-.5-3.6-.5-1-.1-2.7-.1-4.9.2-1.4.2-2.6.3-3.3.4.2.4.2.7.4 1M50 94.1l5.1.1c1.9-.1 3.5 0 4.9.2 1.3.2 4.2.6 8.8 1.4.8.1 1.6.3 2.5.5-.4.2-.9.5-1.5.9-.9.5-2.1.8-3.7.9-1.7.1-2.9.2-3.9.2-.8.1-1.4.1-1.6.1-.4.1-1.2 0-2.4-.3-.7-.3-1.8-.4-3.5-.5-1.4-.2-2.6-.4-3.5-.8-.9-.1-1.5-.4-1.8-1-.1-.2-.1-.5-.1-1.2.1-.4 0-.6-.1-.9.4.3.6.3.8.4m179 56.7c.3-.6.4-1.2.2-1.7-.2-.7-.5-1.2-.9-1.4-1-.5-2.2-.2-3.8.9-4.4 2.9-9 5-13.8 6.4-.1-1.2.4-2.3 1.4-3.3.1-.2 1-1.2 2.6-3.1 1.1-.8 1.8-1.9 2.2-3.3.3-1.4 0-2.5-.9-3.3-1.4-1.2-3.5-.9-6.4.8-4.3 2.7-7.6 4.6-10.1 5.7-2.1 1.1-4 2-5.9 2.6-.1-.2-.2-.4-.2-.6-.3-.6-.5-1.1-.6-1.5-.2-.2-.4-.4-.5-.8-.4 0-1-.1-1.6-.2-4.3-.5-7.7-.2-10.2.9-1.9.7-3.8 2-6 3.9-3.9 3.8-6.9 8.2-9 13.3-1 2.3-2.2 5.8-3.4 10.3-1.4 5.2-2.5 8.8-3.3 10.8-.7 1.7-1.5 3.6-2.3 5.9-.9-2.1-2.1-3.6-3.5-4.7-.9-.6-1.9-1-2.9-1.2-1.1-.1-2.1 0-3 .3-1.3.7-2.5 2-3.4 4.1-1.8 3.5-2.6 7.3-2.3 11.4.3 3.9 1.3 7.6 3.3 11 .9 1.3 1.8 2.2 2.5 2.7-1.2 4.6-1.8 9-1.9 13.2-.2 5.1.4 10 1.9 14.8.5 1.5 1 2.9 1.5 4.2l2.8 8.5c.9 2.6 1.6 4.5 2.2 5.7.4.9 1.2 2.2 2.5 3.9-.1.2.2.8.8 2 .2.7.5 1.4.9 1.9 1 1.3 2.2 1.9 3.5 1.8 1.1 0 1.9-.5 2.6-1.4.6-.8.9-1.8 1.1-2.9 0-.1.1-.6.2-1.4l.8 5.7c2.4-.7 4.5-.1 6.4 1.7.3.3 1 1.1 2.2 2.6.7.9 1.5 1.5 2.4 1.9 1.2.5 3 .3 5.2-.5 2.6-1 4.4-1.4 5.4-1.2 1.3-.1 2.8.6 4.3 1.9.8.6 1.9 1.5 3.3 2.9.9-.5 2.3-.5 4-.2-.1 2.3 1.2 2.8 3.8 1.5 1.5-.9 2.8-1.9 3.9-3l7 4.5 1.9-1.2c.4-.5.8-.9 1.2-1.2.4 0 .6-.1.9-.3l-.1.3 5-3.4c0-.2 0-.4.1-.5.1-.4.1-.6.1-.8.5.4 1.1.6 1.8.7.7-.1 1.5-.2 2.3-.2 1.3-.5 2.5-1.7 3.6-3.4.3.6.7 1.1 1.2 1.7.1-.5.3-1 .7-1.5 1.9-2.9 3.1-4.8 3.5-5.7 1.2-2.2 2.1-4.1 2.9-5.8 1.9-4.8 2.6-9 2-12.9-.3-1.2-.4-1.9-.3-2-.1-.7 0-1.4.2-1.9s.7-1 1.5-1.5c.3-.1.6-.1 1-.1-.4-.7-1-1.3-1.6-1.8l-.2-.1c.2-1.5.3-3.1.5-4.7-.1-.9-.2-1.8-.2-2.9 1.4-.3 2.5-1.1 3.3-2.4.2-.3.4-.9.7-1.9.5-1.1.7-1.7.7-1.9.2-.5.5-1.2 1-1.9.6-.7 1-1.3 1.2-1.8.7-1.3 1-3.2.9-5.7.1-3-.5-5.7-1.6-8-.6-1.5-1.5-2.6-2.6-3.2-.8-.5-1.7-.6-2.9-.3-1.2 0-2.5.3-3.6.9l-2.6-18.9c-1-7.6-2.2-13.5-3.5-17.7-.4-1.2-.8-2.3-1.2-3.4 1.3-1.7 2.5-3.1 3.5-4.3 1.8-2.7 2.8-5.2 2.9-7.4-.2-1.6-.8-2.6-1.7-2.9-.9-.6-2-.6-3.3-.1-.3.4-.7.7-1.2 1.2-.3.3-.6.7-1.2 1.2-2.6 2.4-5.8 3.5-9.4 3.5-1.2-.2-2.2-.1-2.9.2-.4.1-.7.3-1.2.7-.4.3-.5.7-.4 1.2.1.9.8 1.5 2.2 1.8 2.5 1 5.3 1.4 8.3 1.2-.7.1-1.2.4-1.6.9-1.7.2-3.4.2-5.3 0 2.3 2.1 3.9 4.5 5 7.1.5 1.3.9 2.8 1.2 4.6.2.7.4 1.6.7 2.9-1.2-2.1-2.8-4.2-4.6-6.4-2.6-3.1-5.3-4.4-8.1-3.9-1.1 0-2.8 1-5 2.9-2.2 1.7-4 2.6-5.3 2.7-.1-.5-.1-1 .2-1.7.3-1 .5-1.7.5-2 .1-.9-.3-1.8-1.2-2.6-1-.8-1.9-1.2-2.9-1.1-1.1.1-2.1.3-3.1.9-.6.5-1.5 1-2.8 1.7-2.5 1.6-4.4 1.8-5.7.6 0-1.5.1-2.7.2-3.5-.2-1.6-.7-2.6-1.8-2.9-.8-.6-1.7-.6-2.6 0-1.4.4-2.5.8-3.3 1.1-.2.1-1 .3-2.5.5-.9.4-1.7.7-2.3 1-.7.6-1.3 1.3-1.9 2.2-.4.6-.8 1.6-1.3 3-.5 1-1.1 2.2-1.9 3.6-.6.8-1.4 1.9-2.4 3.3-1.5 2.5-3.1 5.4-4.7 8.7-.7 1.7-2.1 4.6-4 8.8-2 4.3-3.2 7.7-3.7 10.1-.6 2.4-.7 5-.3 7.7.4 2.7 1.2 5.2 2.4 7.4 1.1 2.3 2.3 3.5 3.8 3.7.9.1 1.7-.2 2.4-.8.8-.7 1-1.5.5-2.4 5.2.9 10.7.4 16.4-1.6.9.3 1.5.2 2-.3.2.1.5-.2 1.1-.9.6-.3 1.2-.5 1.9-.7h.5l3.4.4c1.1.2 2 .3 2.7.3.8.2 1.5.6 2.1 1.2.4.4 1 1 1.8 1.9.8.8 1.5 1.1 2.2 1.1.4.1.7-.2 1-.7s.3-1 .1-1.3c-.1-.2-.2-.3-.4-.3-.3-.2-.5-.4-.6-.6-.3-.2-.6-.5-.9-1.2-.1-.5-.3-1-.6-1.4-.7-1.7-2.2-2.7-4.6-3.2-.7-.3-1.5-.5-2.6-.6-1.9-.2-2.8-.3-2.9-.4-1-.1-1.6-.2-1.8-.2-.7-.1-1.2-.1-1.5.1-.3.2-.6.2-.9.2-3.6 1.7-7 2.8-10.5 3.4-1.5.4-3.9.6-7.3.7-.9.1-1.5 0-2-.2-.7-.4-1.1-1.1-1.2-2.1-.8-2.5-.9-5.1-.5-7.9.2-1.8 1.1-4.4 2.6-7.7l4.1-9c1.9-4.2 3.5-7.2 4.8-9 .8-1 1.3-1.7 1.6-2.2.6-.9 1.1-1.6 1.5-2.2.2-.3.5-1 1-2.1.5-.8.9-1.5 1.2-2.2 1-1.5 2.2-2.4 3.6-2.6-.3.7-.3 1.5 0 2.4.4.9.9 1.5 1.4 2 1.3.9 3 1.4 4.9 1.5 2.6.3 5.1 0 7.4-1-.7 1.9-1.1 3.4-1.2 4.4.1.9.3 1.7.7 2.3.2.7.7 1.1 1.6 1.4.7.3 1.4.3 2.2.1.7-.3 1.5-.7 2.4-1.3l9.4-5.7c1.6-1.1 2.9-1.6 3.9-1.5 1.6.2 3.2 1.4 4.8 3.7 2.2 3.1 3.6 5.9 4.3 8.5.3.2.6.6.9 1.3l.8 5c.1-.4.3-.5.9-.5.2 0 .4.1.8.2.2.4.3 1 .4 1.8l-.1.5c.2.2.2.4.2.6.2 0 .4.5.6 1.5.1.7.2 1.5.3 2.6.1.5.1 1.2 0 2.2-.1.3-.1.5-.2.7h.2c.4.1.6.2.8.5l.2.2 2.6 20.3c.1.7.1 1.3.2 1.9-.3.1-.5.3-.7.5l.2 1.4c-.3.8-.6 1.7-.9 2.7-.3 1.1-.4 1.9-.5 2.4-.1.9 0 1.5.2 1.9.4.7 1.1 1 2.3.9.1 3-.2 5.7-.9 8.1-.1.1-.1.2-.1.4 1.3 2.7 2.4 5.5 3.1 8.2-.1.4-.2 1-.5 1.7l-.2-.4c-.4-.2-.7-.2-1-.1-.4.2-.7.4-.9.7-2.4 3.7-4.1 6.5-5 8.2-.4 1-.9 2-1.5 3l-1.2 3.4v.2c-.3-.1-.6-.2-.8-.3-.5-.1-.9-.2-1.2-.5-.2-.4-.3-1-.2-1.6.1-.5.4-1.1.8-1.7 1-1.2 1.8-2.2 2.2-3 .2-.5.4-.9.7-1.2.2-.5.4-.9.6-1.1.7-.6 1.1-1.1 1.3-1.4.1-.4.1-.9.2-1.5l.1-.2c-.9-.6-1.7-.9-2.2-.9-1-.1-2 .3-2.8 1.2-.6.8-1.3 1.9-2.2 3.3-1.7 3.3-3.9 6.2-6.7 8.8.4-.8.2-1.5-.5-2-.7-.6-1.5-.7-2.5-.5-.7.3-1.2.9-1.5 1.7-.2.7-.3 1.6-.3 2.6.1.6.3 1.3.5 2h-.2c-.2.1-.5.1-.9.1 0-.2-.1-.4-.2-.8-.1-1-.3-1.8-.5-2.5-.8-1.3-1.3-2.3-1.5-3-.3-1-.5-1.5-.6-1.5-.2-.6-.6-.8-1.3-.7-.7.1-1.2.5-1.5 1.2-.1.4 0 .9.2 1.4l.2 2.3c.3 1 .4 1.9.3 2.6-.1.2-.1.4-.1.8-.4-.1-.7.1-1.1.3-.2-.7-.2-1.5-.2-2.6-1 .1-1.9.3-2.8.7l-1.9-6.4c-.5-2.1-1.4-3.2-2.6-3.3-1.1-.2-2.2.5-3.3 2-1.6 2.1-2.8 4.2-3.6 6.2-.6.1-1.1-.1-1.5-.6-.3-.4-.4-.9-.5-1.5l-1.5-6.4c-.2-1.3-.6-2.1-1.2-2.3-.7-.5-1.4-.5-2.2-.1-.6.5-1.1 1.1-1.5 1.8-.1.5-.1 1.3-.2 2.2.1 1.3.1 2.1.1 2.2-.1.9-.4 1.6-.8 2.2-.4.7-1 1.1-1.7 1.2-.2-.1-.4-.1-.7-.1-.2-.7-.7-1.2-1.6-1.4-.3 0-.6 0-.8-.1-.9-.8-1.6-2-2.2-3.6-1.3-2.6-2-4.1-2.1-4.5-1.1-1.9-1.7-3.1-1.8-3.5-.3-.5-.5-1.3-.5-2.2-.3-.8-.4-1.5-.5-2.1-.3-1.9-.9-3.2-1.8-3.9-.6-.6-1.3-.9-2.1-1-.8.1-1.4.4-1.9.8-.6.5-.9 1.4-1.1 2.9l-1.5 10.7c-1-.6-1.8-1.5-2.3-2.8-.3-.7-.8-2-1.5-3.9-.9-2.8-2.2-5.7-3.7-8.7-.4-.9-.8-1.7-1.2-2.3l.3-1.5c.3-1.5.7-2.9 1.2-4-.3-1.9-.5-3.9-.5-5.9-.3-6.7.5-13.2 2.2-19.7.8-3.5 2.8-8.9 5.9-16.3l6.8-17c1.9-4.9 3.5-8.5 4.8-10.8 2.1-3.7 4.2-6.7 6.5-9.1 2-2 3.8-3.3 5.7-3.9.6-.2 1.3-.4 2.2-.5.2.6.6 1 1.3 1.2 1 .3 2.3.1 4-.6l11.2-3.2c-1.9 2.6-2.1 4.7-.7 6.1.5.9 1.8 1.4 3.9 1.5 3.7.1 7.4-.6 11.2-2 3.7-1.2 6.9-3.1 9.7-5.8.8-.8 1.5-1.7 1.6-2.5m10.2 63.3c.9-.9 1.9-1.3 2.9-1 .8.3 1.2 1.2 1.4 2.9.2 1.5.3 2.8.3 3.8 0 1.4-.3 2.5-.9 3.4-.2.5-.8 1.5-1.8 3.2v.2c-.3-.7-.4-1.4-.5-2.1l-1.4-10.4m-90.4-3.3c-1.9-2.4-2.8-5.3-2.8-8.8.2-2.8 1-5.9 2.6-9.4 1.1.1 2.1.6 3 1.5 1 .8 1.7 1.8 1.9 2.9.1.4.2.9.3 1.6-.4.8-.9 1.6-1.3 2.6-1.3 3.2-2.5 6.4-3.7 9.6m94.4-197.5c-3.8-3.2-7-5.7-9.6-7.4-3.7-2.4-7.4-4-10.9-4.9-2.5-.7-5.4-1-8.7-1-1.9.1-4.9.2-8.9.4-3.8.4-6.5.7-8.1.9-3 .5-5.7 1.2-7.8 2.1-2.5 1-4.8 2.5-6.7 4.4-1.9 2.2-3 4.6-3.4 7.1-.2.5-.2.9.1 1.2.3.4.7.3 1.3-.1.5-.3.8-.7 1.1-1.5.8-1.8 2.1-3.4 4.1-4.8 1.7-1.3 3.6-2.2 6-2.6 1.9-.6 4.1-.9 6.6-1 1.4-.1 3.5-.1 6.4 0l9.7-.5c3.7.1 6.8.5 9.4 1.2 2 .8 4.1 1.8 6.1 3.2 1.4.8 3.4 2.2 5.8 4.1 1.9 1.5 3.3 2.6 4.3 3.3 1.4 1.3 2.5 2.6 3.3 3.8 2.3 3.2 3.7 7.6 4.1 13.2.6 8.5-.7 16.6-3.9 24.5-.7 2.1-1.2 3.5-1.5 4.4-.5 1.7-.4 3.1.2 4.3.6 1.1 1.6 2.2 2.9 3.2.9.6 2.2 1.4 3.9 2.2 2.2 1.3 4.2 3.2 6.2 5.7 1.3 1.6 2.8 3.9 4.6 6.9 1.7 2.5 2.8 4.5 3.3 6 .2.4.4.7.6.9.9.7 1.7 1.6 2.4 2.7.9 1.5 1.3 3.1 1.2 4.9.1.8-.1 1.4-.4 1.9-.2.4-.4.6-.6.9-.5.2-1 .2-1.3.1-.4-.3-.7-.5-1.1-.5-.2-.2-.7-.3-1.5-.2-.4-.2-.8-.4-1.2-.7-.4-.2-.6-.5-.6-1.2 0-.5.1-1 .3-1.3h-.3c0-.2-.1-.3-.3-.5-.2-.7-.9-2.1-2-4.3-4.3-9.4-10.2-17.7-17.7-24.8-.7-.9-1.4-1.4-2.1-1.6-.3-1.6-.5-3.1-.7-4.6.7-.2 1.2-.6 1.6-1.1.6-.9.9-2 .9-3.1-.3-1.9-1.5-3.4-3.8-4.6-1-.3-1.8-.6-2.2-.9-.4-.4-1-1-1.9-1.8-2.2-1.8-4.6-3.1-7.3-4.1l-7.4-2.8c-2.9-1-5.3-2.1-7-3.3-1.5-1.4-2.7-2.4-3.6-3-.4-.2-1.8-1-4.2-2.5-.9-.4-2.1-1.2-3.4-2.3 1.2.6 2.2 1.2 3.1 1.6 3 1.4 6.6 2.4 10.8 3.1 2.6.4 6.4.7 11.4 1.2 1.9.3 3.4.5 4.6.9 1.3.4 2.5 1 3.3 1.6.4.3.9.8 1.5 1.4.7.5 1.3.8 1.9.9 1.1.3 2 0 2.7-.9.9-.8 1.2-1.7.9-2.6-.2-1.2-1.2-2.4-2.9-3.4-1.3-.8-2.5-1.5-3.7-1.9-2.6-1-6-1.6-10.3-1.9-6-.4-9.5-.7-10.5-.9-2.8-.4-5.9-1.2-9.1-2.6-2.3-.9-5.3-2.3-8.8-4.2-1.8-.9-3.3-1.5-4.4-1.9-.6-.2-1.1-.2-1.6-.2-.2 0-.2-.1-.2-.3 1.5-.1 3.5-.4 5.8-.8 3.7-.7 6.6-.9 8.7-.7.6.2 1.7.4 3.3.6 1.1.2 2.1.1 3-.2.5-.2.9-.5 1.2-.9.4-.3.5-.6.5-1 0-.9-.5-1.4-1.6-1.5-.4-.2-.7-.2-1.1-.2-.6-.1-1-.2-1.2-.2-.5-.1-1.1-.3-1.9-.6-1.3-.5-1.9-.8-1.9-.9-1.3-.4-3-.5-5.2-.2-2.5.6-4.4 1-5.7 1-.9.1-2.1.1-3.6.2-1.7-.1-2.9-.1-3.8 0-1 .1-2 .3-2.9.9-.7.4-1.1 1-1 1.8.1 1 .5 1.8 1.2 2.2.7.4 1.4.6 2.2.7.4.3.6.6.8.9-.5.4-.7.8-.7 1.3s.4 1 1.1 1.3c.6-.1 1.1 0 1.7.2 1.1 1.1 2.2 2.2 3.1 3.4 1.2 1.3 2.2 2.3 3.2 3.2.7.5 1.9 1.2 3.4 2.2.5.4 1.4 1.1 2.7 2.1 1 1 1.9 1.6 2.8 1.9.8.3 1.7.6 2.9 1.1.5.3 1.2.7 1.9 1.2l1.5 1.5c1.7 1.4 3.5 2.7 5.7 4 1.4.9 3.5 2.1 6.3 3.5 2.6 1.6 4.5 2.9 5.7 3.9.8.6 1.8 1.6 3.2 3.1.8.7 2 1.5 3.6 2.6-.3 0-.6-.1-1-.2-1.1-.3-2.3-.5-3.4-.7-.9-.7-1.6-1.1-2.2-1.2-1.1-.5-2.6-.7-4.4-.6-6.6-2-12.3-4.3-17-6.8C195.6 47 188.2 41 183 33.7c-.7-1.1-1.5-2.4-2.4-3.9v.2c1 2 1.6 3.2 1.8 3.7.7 1.9 2.1 4 4.2 6.4 4.4 5.9 9.3 10.6 14.6 14.1 6 4.1 12.2 6.5 18.7 7.2 1.6.3 3.3.5 5.1.5.6.2 1.2.5 1.8 1 .4.3.8.8 1.4 1.5.8.6 1.3 1 1.7 1.1 0 .2.1.4.2.5.9 5.7.7 11.2-.5 16.3-.7 3.5-2 7.2-3.8 11.2-.6 1.1-1.4 2.5-2.2 4.2l.2.2c0 .4-.1.7-.2 1.2-1 1.8-1.6 2.9-1.8 3.3-.5.8-1.2 2.1-2.2 3.9l-3.3 5.5c-.8 1-1.8 2.1-2.9 3.2-1.8 1.6-3.8 3.3-6.1 5-1.5.8-2.6 1.3-3.4 1.3-.9.2-1.6.1-2.2-.3-.7.2-1.5.3-2.4.4-8.1.6-14.3-.9-18.7-4.5-.5-.3-1.3-1.1-2.2-2.2-1.1-.9-2.1-1.6-2.8-2.1 0-.2-.1-.3-.3-.2-6.2-6.6-10.9-13.7-14-21.5v-.2c.5-1.4.5-2.7.1-3.8-.2-.9-.7-1.7-1.5-2.6-.2-.1-.5-.4-.9-.9-1.2-3.9-2-7.8-2.2-11.8-.3-5.4.3-10.7 1.7-15.8.8-2.7 1.6-4.6 2.4-5.8.8-1.3 2.6-3.1 5.2-5.4 2.9-2.7 5.7-5.7 8.4-9.1 2.6-3 4.5-5.1 5.8-6.2l-.1-.3c-1.1-2-2.3-4.3-3.6-6.9-1.9 1.7-4.3 4.1-7.3 7.2-3.9 4.1-6.6 7.2-7.9 9.1-3.9 5.2-6.7 10.9-8.4 17.3-1.9 6.1-2.6 12.4-2.3 18.7-2.1-3.1-3.6-6.7-4.5-10.8-1.9-7.7-1.3-15 1.8-21.8 1.2-2.7 3.2-6.1 5.9-10.2 2.5-3.7 5-6.5 7.3-8.2 2.9-2.7 6-4.1 9.2-4.3.3 0 .8-.1 1.5-.4.5-.1 1-.2 1.3-.3.4-.2.8-.5 1.1-1.2.2-.5.2-.9-.1-1.2-.4-.3-.8-.6-1.4-.9-1.8-.5-3.7-.5-5.7-.2s-3.9.9-5.8 1.9c-2.8 1.5-5.7 4.1-8.7 7.7-4.4 5.1-7.8 10.5-10.2 16-2.6 6.1-3.7 12.1-3.3 18 .2 5.1 1.7 10.2 4.5 15.5 2.2 4.3 5.2 9.1 9.1 14.2.2.7.4 1.4.6 1.9-.2.4-.5.7-1 1.1-3.4 2.7-6.9 6.7-10.5 11.9-3.4 5.2-5.6 9.6-6.6 13.2-.5 2.6-.6 5.1-.4 7.4.3 2.5 1.1 4.8 2.3 6.7 1 1.3 2.1 2.4 3.3 3.1 1.4.8 2.8 1 4.2.6.9-.3 1.9-.9 2.9-1.8.6-.8 1.2-1.9 1.8-3.3.2 1 .4 2.2.7 3.6.1 1.9.2 3.2.2 3.9.2 1.1.6 2.2 1.2 3.3.8 1.1 1.7 1.9 2.7 2.2.8.3 1.7.2 2.8-.2.9-.4 1.6-.9 2.2-1.5 1-1.1 1.9-2.8 2.9-5 .3 1.3 1 2.3 2.2 3.2 1.2.8 2.4 1.2 3.6 1.2 1.4-.1 2.6-.5 3.7-1.2 1-.9 1.8-2 2.2-3.2 2.5 1.4 4.7 1.9 6.7 1.6 1.1-.2 2.1-.8 3-1.7.9-.8 1.4-1.9 1.3-3.1.4.5.8 1.3 1.4 2.4l2 1.8c2.4 1.5 4.5 1.4 6.4-.3l1.9-1.4 2.6.2c2.2.2 4.9-.5 8.1-2.1.9 1.8 2.5 3.1 4.8 3.9 2.4.6 4.3.1 5.7-1.4.5-.4 1.4-1.4 2.7-3.1.7-.9 1.3-1.7 1.9-2.2.7-.1 1.3 0 1.9.2 1.4 1.2 3.1 1.7 5.2 1.6 1.1-.1 2.3-.5 3.5-1.1.3 1.1.8 2.1 1.7 2.9.7.7 1.7 1.6 2.9 2.6 1.3 1 2.6 1.5 3.6 1.5.9.2 1.6-.1 2.2-.9.7-.5 1.2-1.1 1.7-2 .5-1.1.6-2.8.5-5l.2-3c2.4 1.2 4.5 1.7 6.1 1.6 1.5-.2 2.9-.9 3.9-2.1 1-1.3 1.5-2.8 1.6-4.6.1-1.2 0-2.9-.2-5.1 1.5.1 2.7.1 3.6.1 1.4-.1 2.6-.4 3.5-1 1.5-.8 2.7-2.3 3.6-4.5.8-1.5 1.2-3 1.1-4.4.7 0 1.3-.3 1.9-.9.7-.8 1.2-2.1 1.5-3.9.3-5.3-1.2-10.6-4.4-16.1-2.2-4.1-5.7-8.7-10.4-13.9-1.3-1.8-2.6-3-3.7-3.9-1.5-1.2-3.1-2.1-4.7-2.8 2.3-5.2 3.8-10.7 4.6-16.7.8-5.8.9-11.6.2-17.4-.6-4-1.5-7.2-2.8-9.5-1.9-2.5-4.3-5.2-7.8-8.3m-7.6 75.4c.1.5.1 1 .1 1.5-.2 0-.5.1-.9.2.4-.6.6-1.2.8-1.7m8.8-2.6c3 3.7 5.3 7 7 9.9 1 1.5 2.3 3.7 3.9 6.7 0 .2.1.5.2.9h-.2c-.6.4-1.1 1-1.5 1.9-.5-.1-1-.4-1.5-.9-.6-.5-1.1-1.3-1.7-2.6-.4-.6-2.1-4.6-5-12-.6-1.7-1.2-3.1-1.9-4.5.3.1.5.3.7.6m-91.5 13c.2-.2.5-.5 1-.9l-.7 1.9-.8.8h.2l-4.5 13c-.4 1.2-.6 2.2-.7 3-.3.4-.6.7-1 1.1 0 .2.2.3.5.5l-1 1.5c-.6 1.2-1 2.3-1.2 3.2-.7 1.9-1.6 2.8-2.9 2.6-1.5-2.4-1.8-5.4-.7-9.1.6-2.1 2-4.8 4.2-8.1 3-4.6 5.5-7.7 7.6-9.5m2.5-4c-.4.5-.8 1.3-1.2 2.4l-.2.4c0-1.3.5-2.2 1.4-2.8m6.2 11.7c-.2-.2-.2-.4-.2-.5v-.2c0 .1.1.3.2.7m4.8 23.2l-.6-1.2c.4-.1.6-.1.8-.1h.3c-.2.5-.4 1-.5 1.3m25.8-25.1c-.2.1-.3.2-.3.4.4-.1.9-.1 1.6-.1.2-.1.3-.2.5-.4-.9-.1-1.5-.1-1.8.1m-17.6-21.6l-.5-.2c-.4-.2-.7-.3-1.1-.2v.3c-.4-.2-.7-.1-1 .2l-.2.5.1 1.2c.3.5.8.8 1.5.8.6.2 1.1-.1 1.5-.9.2-.4.1-.8-.1-1.2.1-.2 0-.4-.2-.5m4.8 0c-.5 0-.9.2-1.2.6-.4.1-.5.4-.5.9 0 .2 0 .3.1.5 0 .4.2.7.5 1 .2.2.4.3.9.5l.5.2c.2 0 .4-.1.8-.3.5 0 .7-.2.9-.5.4-.2.5-.7.5-1.4.2-.5.1-.8-.3-.9-.4-.5-1-.7-1.8-.9l-.4.3m-1.2-3.8c-.3-.1-.7-.3-1.2-.5 0 .2-.1.2-.3 0-.4.1-.7.3-.9.6-.5.6-.6 1.4-.4 2.2l.5.5c.2.2.3.3.4.5.4-.1.6-.1.9-.1.7 0 1.2-.3 1.5-.9.1-.7.1-1.3-.2-1.8 0-.1-.1-.3-.3-.5m30 7.6c-1.1-.2-2-.2-2.7.2-.5.4-1 1-1.5 1.9-.4.5-.8 1.3-1.2 2.3-.6 1.2-1.5 2.2-2.9 3.2-1.2.9-2.4 1.5-3.7 1.9-2.8.6-5.6.2-8.2-1.3-.6-.2-1.4-.6-2.5-1.5-1-.7-1.8-1.1-2.3-1.4-.7-.5-1.4-.7-2.1-.6-.6.2-1.1.5-1.4 1-.3.7.1 1.6 1.3 2.6 2 1.7 4.1 3.2 6.4 4.5 2.8 1.8 5.3 2.6 7.5 2.5 2.1.1 4.3-.6 6.7-1.9 3.1-1.7 5.6-3.8 7.5-6.4 1.2-2 1.6-3.7 1.1-5.2-.3-.9-.9-1.5-2-1.8m.4-8.3c-1.1-.4-2.1-.4-2.9.1-.4.6-.5 1.2-.5 1.9-.2.7 0 1.3.7 1.8.5.5 1.2.6 2.1.3.9-.1 1.5-.4 1.8-1 .5-.7.5-1.4.2-2.1-.4-.5-.9-.8-1.4-1m4.5-1c.7-.2 1-.6 1.1-1.1.4-.7.3-1.3-.1-1.9-.3-.4-.8-.6-1.7-.7-.7-.2-1.3.1-1.9.9-.1.5-.1 1.1.1 1.9.3.3.6.5 1.2.7.4.2.8.2 1.3.2m2.4 2.1c-.2-.4-.6-.5-1.1-.5-.3 0-.6.3-1.1.9l-.5.5v.8l.3.5c.4.4.6.6.9.6.4 0 .9-.2 1.4-.6.3-.5.5-.9.7-1.2v-.5c-.3-.3-.5-.5-.6-.5m5.9-15c-.2 0-.3.1-.5.2-.4-.4-.8-.7-1.3-1.1l-2-1.5c-1.7-1-2.7-1.5-3-1.5-1-.3-2.1-.4-3.3-.4-1.8.3-3.6 1.2-5.5 2.8-.8.6-1.2 1.2-1.3 1.9-.4.4-.4 1.1-.2 2.2l.2 2.6c.1.9-.1 2.1-.3 3.6 0 .4.1.9.3 1.5.2.5.4.8.8.8.7.1 1.2-.5 1.6-1.7.5-1.2.9-2.5 1.2-3.9-.1-1.1 0-2 .2-2.5.3-.9.7-1.5 1.3-1.6.7-.4 1.7-.3 3.2.4.9.5 1.8 1 2.6 1.6 0 .2.2.6.6 1.1.4.4.6.7.8 1.1.4.2.7.3.9.3.4.8.9 1.3 1.5 1.7.4 0 .9 0 1.5-.1l1.5-.6c.3-.5.5-.8.7-.8l1.3-.5c.3-.4.5-.8.7-1.2.2-.4.1-.9-.1-1.5l-.9-1.7c-.7-.9-1.5-1.3-2.5-1.2m-45.1-5.3c-1-.5-2.2-.5-3.6-.1-1.8.8-3.3 2.4-4.6 4.8-.4-.2-.8-.3-1.3-.5v.2h-.2c-.5-.1-1 0-1.3.4-.3.4-.5.8-.7 1.4-.2.7-.1 1.4.3 2.1-.5.3-.9.6-1.2.9l-.8.9c-.1 0-.4.2-.9.5-.5.4-.7.8-.7 1.4-.2.2-.2.3-.2.4-.4.3-.5.6-.5 1-.1.7.1 1.3.7 1.9.5.3 1.1.5 1.8.5.1.2.3.3.5.4.9.5 1.7.6 2.3.3l.2-.1c.4.1.6.1.9 0 .9-.1 1.6-1.1 2.1-3 .6-2.4 1.6-4.6 3-6.5.5-.6 1-.9 1.5-.9.2.2.4.5.9 1l1.5 2.5c.7.5 1.5 1.1 2.2 1.9 1.5 1.8 2.5 3.3 2.9 4.6.6.1 1.3.1 2.2.1l1.7-.1c.1-.9-.1-1.9-.5-3-.8-3-2.7-6.5-5.8-10.5-.8-1.2-1.6-2-2.4-2.5m-11 173c-.4.2-.5.5-.5.8-.3.8.2 1.4 1.6 1.9 3.7 1.7 7.5 2.8 11.4 3.3 2.2.3 3.9.1 5.1-.4.4-.2 1.1-.6 2.2-1.2.8-.6 1.6-1 2.3-1.1.9 1.2 1.5 2.1 2 2.6.7 1.1 1.5 1.9 2.4 2.4 1 .8 2 1.2 3.2 1.2 1.3-.1 2.3-.5 3-1.2.3-.4.6-.9.9-1.5.5-.7.9-1.2 1.2-1.5.3.6.8 1 1.6 1.3.6.2 1.3.3 1.9.2 1.2-.1 2.4-.8 3.5-2.1.6.6 1.6.9 3 .9.6.1 1.6 0 3-.2.2.1.7.1 1.6.2l3.7.9c2.3.6 4 .9 5.1.9 1.3.2 2.4-.1 3.2-.7.5-.6.7-1.5.6-2.6.1-1.5-.4-2.7-1.5-3.3-.3-.2-1.1-.2-2.4-.2-1.7-.1-3.4-.2-5-.4-1.2-.1-2.1-.3-2.7-.7-.2-.3-.5-1-1-1.9-.2-.7-.6-1.1-1.1-1.3s-1.1-.2-1.8 0l-1.5.6c-.5-.1-1.2-.1-2-.2-.8-.3-1.4-.3-1.9-.2-.7-.1-1.3.2-1.9.9-.6.4-.9.9-.9 1.5-.4 0-.7 0-.9-.1-.7-1.5-1.7-2.6-2.9-3.1-.6-.2-1.3-.3-1.9-.2-.9.3-1.5.6-1.9 1.1-.5.5-.8 1.4-.9 2.8-.2 1.4-.3 2.4-.5 2.9-.6.1-1.1-.2-1.5-1-.3-.4-.7-1.1-1.1-1.9-.4-1.3-.7-2.2-1.1-2.7-1-.8-1.9-1-2.8-.8-.7.1-1.4.6-2.3 1.4-2 1.9-3.5 2.9-4.6 3.3-1.3.4-2.8.5-4.6.5-2.9-.2-5.8-.6-8.7-1.2-.8-.3-1.4-.4-1.8-.2-.4 0-.6.1-.8.3m44.6-35.3c-.5.7-1 1.9-1.7 3.6-.3.7-.7 1.5-1.3 2.5-.6 1.2-.9 2.2-.9 2.9-.2 1 .1 1.9.8 2.6.7.9 1.5 1.4 2.3 1.3 1-.1 2-.7 2.8-2.1.2-.4.3-.9.4-1.5.3-.8.4-1.4.5-1.8.3-1.1.9-2.6 1.8-4.3.3-.7.5-1.1.8-1.2.4-.2.8-.2 1.2.2.5.4.9.9 1.2 1.4.9 1.9 1.4 4.1 1.5 6.5.1.9.1 1.6 0 1.9.3.9.7 1.4 1.4 1.5.7.1 1.2-.2 1.7-.6.3-.5.5-1.1.5-1.8.6-2.2.5-4.5-.2-7-.7-2.7-1.9-4.8-3.5-6.2-1-.7-2.1-1.1-3.3-1.2-1.3-.2-2.5 0-3.5.5-.8.5-1.7 1.5-2.5 2.8m-29 1.4c-.8.9-1.3 2.3-1.5 4.3-.1 1.8.3 3.1 1 3.9.3.2.8.5 1.6.8.3.3.8.8 1.4 1.5.7.4 1.3.6 1.9.6.8.3 1.5.3 2 0 .9-.4 1.6-1.1 1.9-1.9.3-1 .4-2 .4-3 .1-2.9-.8-5-2.6-6.3-.7-.7-1.7-1.1-3.1-1.1-1.1.1-2.1.5-3 1.2m56.8 77.5l.9-1.5c-.6.5-1 .9-1.4 1.2l-.6.8c.4-.1.7-.2 1.1-.5m-7.4-47.7c-.1-.7-.2-1.1-.2-1.2-.3-.4-.5-.6-.7-.6-.3-.1-.6.1-.9.5-.4.1-.6.2-.9.4-.4-.1-.6-.2-.7-.4-.9.1-1.7-.3-2.3-1.2l-1.8-2.4c-1-1.5-2.6-3-4.6-4.5-.3-.6-.7-1.1-1.5-1.5-.7-.2-1.6-.3-2.8-.3-2.5-.1-4.6.2-6.5.9-.6.3-1.1.5-1.7.7-.2-.1-.4-.1-.8-.2-.2.4-.4.8-.7 1.3-1.7 2-2.3 3.7-1.9 5.3.3.7.6 1.2 1.2 1.5.5.4 1.1.4 1.6 0 .4-.1.6-.4.9-.9.1-.2.1-.3.1-.5.5.1.9.1 1.2.2.4-.1.8-.4 1.2-.9.5-.7.9-1.1 1.2-1.2.8-.7 1.7-1 2.7-1.1.3 0 .7.1 1.4.2h.3c1.2 1.1 2 1.9 2.4 2.5.4.2 1.3 1.3 2.8 3.4.8 1.2 1.7 2.2 2.6 3 1.1 1 2.4 1.6 4 1.9 1.4.3 2.6.1 3.5-.6.4-.5.8-1.3 1.1-2.5 0-.6-.1-1.2-.2-1.8" fill="#03f"/></svg>