<svg xmlns="http://www.w3.org/2000/svg" viewBox="0 0 124 477">
  <path fill="#fffed9" d="M5.49 477a231.21 231.21 0 0 0 32.37-6.84q13.72-4.1 22.77-11.49a47.1 47.1 0 0 0 13.71-18.32q4.67-10.94 4.67-27.35 0-10.94-1.1-24.62t-2.47-28.17q-1.37-14.5-2.47-28.44t-1.1-25.44q0-17.5 4.4-28.17t11.8-16.41a40.09 40.09 0 0 1 16.73-7.66 95.22 95.22 0 0 1 19.2-1.92v-24.61a95.29 95.29 0 0 1-19.2-1.92A40.09 40.09 0 0 1 88.07 218q-7.41-5.75-11.8-16.41t-4.4-28.17q0-11.5 1.1-25.71t2.47-29 2.47-29 1.1-25.7q0-16.41-4.67-27.35a47.1 47.1 0 0 0-13.71-18.32q-9.05-7.39-22.77-11.5A231.21 231.21 0 0 0 5.49 0L0 22.43q14.81 3.28 25.24 6.02T41.7 35a22.4 22.4 0 0 1 8.78 10.12q2.74 6.29 2.74 16.68a509.66 509.66 0 0 1-3.29 53.61 557.97 557.97 0 0 0-3.3 59.63q0 17.5 3.57 28.71a63.06 63.06 0 0 0 9.06 18.6 38.41 38.41 0 0 0 12.62 11.22 124.14 124.14 0 0 0 14.26 6.56 123.97 123.97 0 0 0-14.26 6.57 39.6 39.6 0 0 0-12.62 10.94 59.19 59.19 0 0 0-9.06 18.32q-3.56 11.21-3.57 28.72a528.05 528.05 0 0 0 3.3 58.53 475.99 475.99 0 0 1 3.29 51.97q0 10.39-2.74 16.68A22.4 22.4 0 0 1 41.7 442q-6.04 3.83-16.46 6.57T0 454.57z"/>
</svg>
