<svg xmlns="http://www.w3.org/2000/svg" preserveAspectRatio="xMidYMax meet" viewBox="0 0 1342 720" width="671" height="360"><g fill="#00F"><path d="M951 1c3 3 5 14-3 12-5-3-3-12 3-12zM937 207c-3-7-7-16-4-23 1-3 4-3 6-6l2-1-3-9c-3-8-10-19-11-28-1-6 8-16 16-14 6 2 7 19 9 25l10 28c4 7 9 17 14 23 6 8 13 11 9 23 3 2 16-7 19-9 6-4 4-5 7-10 7-12 14-24 23-34 8-9 20-20 33-19 12 2 21 15 23 26 1 5-2 13 0 17 3 3 12 6 16 9 9 6 21 19 13 31-9 14-27 21-38 34-4 5-20 37-13 42 13-21 29-38 47-54l27-24c8-7 21-14 26-24 2-4 3-11 3-15 0-3-2-4-1-7 0-6 6-5 4-11-2-5-7-5-6-12 2-8 16-17 22-22l31-24c4-3 10-7 13-12 2-3 1-7 3-10 5-6 18-1 19 6s-15 21-19 25c-6 6-23 17-21 25 2 5 6 5 6 12l-1 11-2 6c-1 7-4-4 0 7 3 6 7 10 9 17 4 9 3 19-4 27l-12 7-11 5c-6 1-6-2-11-3-4 0-11 5-14 7a1028 1028 0 0 0-88 84c11 6 11 26 15 36 6 14 15 25 24 36 12 14 1 18-12 22-6 2-12 7-17 8-7 2-4-4-10-5l-1 8c-2 0-3 1-4 3s-3 8 2 9c10 2 8-18 16 0 8-7 11-11 22-5 9 5 21 12 29 19 6 5 8 8 5 16-4 10-11 7-19 4-4 5 23 27 27 31 12 12 23 25 33 39l26 42c4 7 9 20 15 24 5 4 8-1 12-5 6-5 12-10 16-16 4-5 5-13 9-18 11-14 15 6 12 15-5 13-15 26-22 39-3 5-6 12-12 13-6 2-13 1-19 2 4 6 18 19 4 23-9 3-28-9-36-12-12-6-21-15-32-21-11-5-24 7-33 13 5 3 7 4 10 9-29 10-38-48-17-45 8 1 20 22 7 14-5-3-7-8-10-1-3 6 0 13 4 17 3-11 16-11 24-17-7-9-6-13 4-18 10-4 9-7 4-18-9-17-20-34-35-48-16-15-34-29-52-42-8-6-17-9-28-11-5-2-7-1-12-1l-3 2-3-1c-6 0-3-2-10 0l-15 6c-8 3-15 8-20 14a74 74 0 0 0-16 45c-1 12-2 23 2 35 2 7 6 21 11 26 9 8 11-8 20-5 5 1 5 22 8 27 5-3 9-8 14-2 2-3 11-26-2-21-4 2-2 12-6 12s-4-8-3-10c1-8 13-14 19-7 3 4 2 12 2 16 0 7 2 10-4 12-4 3-7-1-9 6-2 6 4 12 7 17 5 8 11 17 4 23-5 4-32 20-39 18-14-3 15-15 19-17l-6-11-29 20c-6 3-19 14-26 12-23-5 22-37 27-42-21-17-40-35-49-61a102 102 0 0 1-6-60c0-5 7-21 5-24-1-2-7-3-9-4-5-3-4-2-3-9 2-7 4-13 8-19l15-17c4-5 9-14 15-17 8-4 11 3 17 6 5 3 6 3 7-5 0-12-15-27-21-37 0 9-3 10-11 7-6-2-17-6-22-11-9-9 8-27 13-36 3-5 10-14 11-20 1-7-1-5-8-7-14-2-29-3-39-14-18-19-3-47 8-65 4-6 11-14 13-20 2-8-4-11-7-18-8-16 9-23 21-29zm35 190c-10 7-1 12 6 14 1-11 0-8-6-14 12-4 5-13 0 0zm80 61c0 3-1 6-3 8-3 4-10 1-13 5-11 12 19 12 23 12 12 1 23 12 32 19l20 15c3 3 10 11 15 10-3-10 0-21 12-24-5-14-24-27-37-33-15-8-32-11-49-12zm-32-221c-5-4-19 21-20 26-2 12 4 33 10 43 6 11 21 6 32 5h10c5-3 1-1 3-6l6-18c9-17 21-57-8-62-7-1-14 0-20 2-10 3-5 3-5 11 1 11-13 14-8-1zm8 244c-1-11-4-12-12-6l-29 15c-10 4-23 6-31 11-7 4-12 19-16 25 32 7 13 39 1 56l-4 3c-1 3 1 10 2 12 2 8 5 14 9 21 5 8 8 19 19 14 6-3 7-4 5-11-2-8-7-16-10-24-6-17-4-34 0-51 3-15 7-31 19-42 13-13 29-19 47-23zm54-227c8-5 15-12 22-18 6-6 9-9 3-17-10-13-25-16-41-15-20 1-36 7-53 16-11 6-39 15-43 28-1 6 4 11 9 13 8 5 10 3 13-4 8-13 13-24 27-33 11-8 27-13 40-8 18 7 21 22 23 38zm-81 56l-8-28c-4-9-7-6-16-10-4-3-12-11-17-10s-12 18-15 21c-3 6-13 17-13 24 1 8 10 7 16 7l29 1c9 1 16 2 24-5zm149 240l22 39c3 5 7 15 12 15 4 0 13-7 17-9s5-2 5-6c0-3-4-8-5-10l-11-16c-7-11-16-22-25-31-4-6-17-24-24-23-10 2-9 20-4 26 8 10 17 0 27 4 16 5-11 10-14 11zM950 211c-7 4-29 9-28 19 1 8 16 24 25 23 11-1 21-14 26-23 8-14 2-18-11-24-5 12 11 10 1 21-6 7-21 20-29 8 4-1 17-6 19-10s-1-9-3-14zm105 112c-3-5-28-2-34-2-9 0-11-1-10 9 0 5 0 16 3 21 4 7 5 5 10 2 11-5 22-21 31-30zm-26-127c13-5 23-7 36-7 5-1 13 1 15-3s-3-14-5-17c-15-19-40 14-46 27zm-12 253c0 14 3 14 17 12 8-1 8-3 8-11 0-7 0-15-8-16s-20 7-17 15zm171-217c-4-6-6-14-13-12-3 0-20 13-20 16-5 20 27-1 33-4zM938 573c7-6 17-43 0-32-10 7-6 25 0 32zm-14-235c8 4 11 3 17-3 1-2 5-8 7-5 1 1-5 12-5 13 10-2 9-5 13-15-5-1-18-6-23-4s-7 10-9 14zm279-147c-9-5-20-2-23 8-4 10 3 20 11 25 0-7-7-10-5-18 2-6 12-11 17-15zm-8 19c3 0 10-2 12 1 2 2-1 6 1 9 6 10 12 0 12-7-1-2-2-9-5-10-3-2-3 1-6 1-7-1-12-3-14 6zm-132 174c-8 1-17 1-18 9-1 5 1 9 6 10 14 2 14-11 12-19zM948 262c-4-1-11-3-15 0-5 2-10 13-14 18 14-3 24-3 29-18zm-36 53l9 1c-10 9-10 9-3 20 2-4 8-10 8-15 0-6-6-10-4-18-8 1-13 3-10 12zm94 25c-5-1-10 10-12 14-3 5-10 19 0 18s10-24 12-32zm31 50c-6 0-16 3-11 12 1 4 4 6 9 3 6-3 3-9 2-15zm21-22c-4 2-25 6-13 13 1 1 12-1 14-3 3-4 1-5-1-10zm-101-26c6 9 16-12 18-15-13-4-14 5-18 15zm178-90c5 3 8 6 14 4 8-4 3-10-1-15l-13 11zm-72 167c-4 1-27 5-12 12 8 4 12-5 12-12zm9-81c6-7 16-14 7-22-6 7-14 12-7 22zm-81-12c-8-9-16 12-17 17 10 0 12-10 17-17zm-77-30c8-1 17-3 18-13-9 3-19 2-18 13zm50 177c1 4 10 23 12 9 1-7-7-16-12-9zm-5 2c-9 0-7 11-1 14 10 5 4-11 1-14zm179-212c-3-4-17-9-16 2 2 11 13 1 16-2zm-64 117c-3 3-9 12-2 15 9 4 11-12 2-15zm-37-20c-5 11 18 2 20 1-7-7-10-4-20-1zm27-10c-2-6-3-24-10-13-5 7 2 13 10 13zm-49 52c-2-3 2-5-3-6-4-2-8 3-8 6-1 9 13 8 11 0zm31-59c-3 2-15 9-13 13s15-4 18-5l-5-8zm-37 118c-1-2 0-7-3-8-5-3-6 2-7 5l2 9c5 4 6-2 8-6zm-20 16c-1-2-9-21-12-8-1 7 6 15 12 8zm13-39c-3-11-5-13-14-11 3 10 7 13 14 11zm119-162c-3-6-7-8-12 0-2 3-5 5 0 7 4 2 9-4 12-7zm-34 133c-1-2-1-8-4-9-2-1-9 1-10 3-3 9 9 6 14 6zm-17 18c8-1 14-2 14-11-8 1-15 1-14 11zm-84 36c0 5 10 14 12 5 1-6-8-10-12-5zm72-25c-2 2-8 12-3 15 3 1 6-1 7-4 2-5-1-7-4-11zm-12-25c3 3 22-4 18-6-4-4-15 2-18 6zm-50-13c-3-1-16 1-10 8 6 6 10-4 10-8zm40-16c2-4-3-8-7-7-3 1-4 3-4 5 0 6 6 3 11 2zm-64 41c2 5 7 16 14 14-4-6-5-15-14-14zm16-43c9 0 11-1 10-7-9-2-11-1-10 7zm-2 12c26-4 1-13 0 0zm28-12c-9 1-10 2-8 9 8-1 9-2 8-9zm63 64c-2-2-2-11-7-5s1 11 7 5zm24-161c-4 3-8 6-8 11 6 0 15-6 8-11zM997 420c-2-4-1-6-7-6-2 1-6 1-5 3 2 5 9 3 12 3zm14-6c0-2-9 4-7 3 8 7 19-3 7-3zm74-103l5 6c2-3 10-8 4-10-3-2-6 2-9 4zm-20 57c2 9 3 10 9 6-3-8-3-8-9-6zm33-67c4 6 10-1 11-6-5 0-7 3-11 6zm-59 112c-4-4-9 0-11 3 6 0 8 1 11-3zm-32 14c-4 7 10 1 11 1-1-2-9-1-11-1zm17-56c6 3 8-3 4-7l-4 7zm-46 49c-1-6-3-4-9-4-1 3 7 4 9 4zm37-48c-8 0-9 0-9 5 3-1 8 0 9-5zm46-19c0 2 0 9 4 7 6-2-3-6-4-7zm-55 17l6-3-4-5c-2 1-2 5-2 8zM720 196c4 5 6 10 12 12 5 2 12 0 18 2 12 3 21 16 27 26 13 24 6 55 22 76 9 11 6 13-2 25-5 8-6 8-2 17l10 24c6 15 8 29 3 44-5 14-15 25-19 39-2 6-1 12-1 19s-2 15-1 23c1 14 5 25 12 38l6 10 7 7c2 4 3 6-2 8s-12-2-17-3c-8 0-8 0-15-4-9-4-24-7-33-4-12 3-7 25-18 27-5 1-7-5-10-8-8-6-6 3-6 10-1 17 4 31 0 48-2 7-8 34-16 36-9 1-11-21-11-26 1-7 3-15 0-21-2-5-8-10-11-14-6-6-8-10-11-18-1-5-3-17-8-20-3-2-15-2-19-3l-16-5c-16-2-23 9-29 23-5 10-13 18-13 0 0-15 4-31 11-45 11-22 39-39 34-67-5-23-36-24-38-49-1-12 4-23 10-33l11-18c4-6 12-15 10-20-5-12-26-15-26-30 0-14 9-31 14-44 10-23 12-62 39-73 7-2 13-1 20 0 4 1 15 5 19 4 2-1 6-5 4-8l-7-2-8-6c-10-11-5-23-12-33-4-5-9-9-12-16s-3-15-2-23c2-24 8-55 39-46 3-11 4-27 13-35 10-8 25-6 36-12 4-2 13-9 19-7 8 2 2 7-2 9-6 5-14 8-20 11-7 3-15 2-22 4-13 5-10 24-14 35-7 16-14 1-25 4-6 2-8 7-9 13l-2 12-4 4c-3 8-3 35 8 37-1-16 3-29 17-38 11-7 25-6 35-1 12 6 20 17 24 30 5 17 3 30-4 45 16-5 24-23 21-40-2-15-9-28 5-40 14-11 15-15 14-33-1-12 18-23 29-24-2 11-10 11-17 18-6 6-2 14-4 23-1 7-4 13-10 18-5 4-12 6-13 14s5 18 6 26c1 11-1 21-6 30-4 7-10 13-18 16-7 2-14 0-20 2zm28 22c-7 0-14-2-21-1-8 1-16 6-24 9-14 3-26-9-40-13-6-1-13-5-11 2s14 10 15 16-7 15-11 19c-4 6-9 10-11 17-4 11 0 23 9 30 4 4 8 4 9 10 2 7 0 16 0 23 1 5-1 18 3 23s16 6 22 6c13 0 34-16 44-5 4-13 4-25 6-38v-12c-3-3-3-5 0-8l5-9c6-9 13-18 10-29-2-11-12-19-18-28 8 1 9-6 13-12zM587 575c2 1 10-11 12-13 6-6 12-7 20-6 17 2 34 13 37-10l2-31 1-15 1-9c0-6 0-3-3-6l-5-5-4-8a104 104 0 0 1-15-57c1-9 7-22 4-30-1-4-6-6-6-11-1-3 3-10 2-11l-11-5c-3 1-7 13-9 15-9 15-24 33-19 52 4 17 24 19 32 33 12 19 2 38-9 54-16 21-28 37-30 63zm73-203c-13 13-19 41-15 59 1 8 4 18 8 26 3 8 11 12 14 19 5 9 2 22 2 32l-2 35c-1 10-1 20 3 30 4 14 8 11 21 10 13 0 10-7 11-19v-29c-1-10 0-20-5-29-5-11-7-15-7-28 0-9-5-16-5-25 0-12 6-21 8-32 1-7-1-7-6-12l-8-13c-6-8-11-17-19-24zm97 13c1 7 2 15 1 22 0 8-4 15-5 22 0 9 3 18 4 27 0 9-2 19-5 29-6 17-24 37-15 56 4 8 8 4 16 4 9 0 19 1 27 5s19 9 10-4c-5-8-9-14-12-23-5-19-2-34 5-52 7-17 15-38 17-57 1-18-8-44-20-58-2 2-9 7-10 10-1 4 2 7 2 11 2 12-7 10-15 8zm-46 129c2-6 6-4 10-4 7 0 3 2 7-3 2-2 3-6 4-9 7-14 13-29 14-45 0-15-6-28-9-43-3-11 0-26-12-32-11-6-20 3-21 13-1 7 0 13-2 20l-5 21c-2 8-4 15-2 23 1 7 5 11 8 18 3 6 4 13 5 20 0 5-1 17 3 21zm14-377c-11-13-23-25-41-16-10 4-15 11-15 21s-1 21 1 31c1 8 5 15 13 18 7 3 13 0 11 10-1 4-8 12-3 16 6 5 21-6 26-8-6-11-9-18 1-27 11-10 16-21 8-36-6 7-28 1-21-8 4-5 5 2 8 3 5 2 8-2 12-4zm-85 76c-14 21-20 45-28 68-3 12-10 24-11 35-1 15 8 8 15 1 7-6 14-16 17-25 4-9 2-16 5-25 4-10 13-20 15-30s-8-17-13-24zm107 22c9 5 16 14 18 24s-4 18-1 28c1 6 5 12 7 18l4 18c3 7 13 13 19 5 5-7-6-16-9-24-4-12-5-25-8-37-2-10-4-22-9-31-1-2-7-12-10-12-2 0-9 9-11 11zm-136 98c5 6 11 14 19 17 5 2 20 4 21-5 0-7-15-15-20-18-9-5-12 0-20 6zm137 5c4-6 14-12 16-19 1-7-6-20-8-27-5 7-9 10-9 19l1 27zm19-6c-5 6-23 23-10 28 9 2 18-12 24-18l-14-10zm-114-2c1-15-2-23-13-34-11 19-3 23 13 34zm4 23c-4-3-20 14-19 20 2 14 17-16 19-20zm86 37c-1 9-2 18 5 26 3-7 0-23-5-26zm4-27c1 6 6 16 14 15 10-1-12-14-14-15zM374 581c-15-4-31-4-46-10-6-2-38-23-40-21 6 13 28 31 23 46-3 8-14 14-20 20l-26 23c-15 13-30 27-46 38-8 5-15 9-21 17-5 6-5 14-12 18-8 3-20 4-28 5-15 1-10-4 0-7 8-3 15-3 21-10 5-7 8-16 12-24 4-10 10-18 15-28 5-9 7-19 11-29 8-18 24-22 41-29-17-21-43-38-41-67L98 581l-59 29c-16 7-24 0-29-16-10 9 15 18 5 25-9 6-14-24-11-30 3-5 8-5 12-6a24858 24858 0 0 0 69-32l90-44 45-23c12-7 16-16 22-29 8 7 17 12 25 18s17 15 27 16 21 0 31-1l14-1 11-2c11 2 1 11-2 14-2 4-4 11-4 15s-1 3 1 6l11 4c20 10 39 21 58 34 12 8 7 10 0 21l-20 35c-5 11-8 19-9 32-1 11-3 12-13 17-9 4-11 10-15 18-5 9-18 11-28 15-9 4-20 12-30 13-17 3-2-9 4-12 11-7 24-10 35-15 14-7 14-15 17-29 3-13 3-27 5-39 3-12 9-22 14-33zM29 604c28-11 55-27 82-40l41-20c7-3 10-3 9-10s-4-7-9-6c-14 4-28 14-40 20l-40 19-41 19c-3 1-12 3-13 8-1 4 7 10 11 10zm298-111c-5 0-13 6-12 12 1 4 12 9 15 8 12-1 10-21-3-20zm-130 28c-3-2-9-9-14-6-3 2-3 12-4 15l18-9zm-27 13l4-15c-11 3-12 3-4 15zm61-32c4-5-4-8-8-7-11 3 4 6 8 7zm-10 5c-8-7-10-7-15-2 11 5 11 5 15 2zm-26 1l-1 2 11 5c2-3-7-6-10-7zM284 352l17-1c-2-11-6-22-2-33 3-9 12-19 19-26s16-10 26-9a1157 1157 0 0 1 24 8l2-4c7-5 12-13 22-5 9 8 1 19 0 28-1 11 5 21 4 32-2 11-9 19-16 27l36 9c-11 13-23 25-35 36-6 5-12 14-20 16-7 1-19-2-27-3-14-2-33-7-39-21-7-16-8-37-11-54zm51-37l-19 1c-5 2-7 6-8 12-4 20 16 18 30 19 11 0 41 2 36-17-4-17-26-14-39-15zm18 55c0-10-27 5-25-8 6 0 21 3 26-3-7-2-21-4-27-2-7 3-4 10 0 17s27 12 25-1c-6 2-17 7-21-1l22-2zM443 459c6-6 13-14 17-22l10-22c3-3 7-6 8-10 2-3 0-7 1-11 0-6 1-12 9-9 7 3 8 13 15 17 8 4 14-3 21-6 25-11 2 24-4 32 7 3 10 10 13 16 6 9 4 13-8 13-8-1-14-7-21-4-8 3-8 15-18 15 1-6 13-26 20-27 6-2 12 7 21 6-5-6-14-12-13-20 0-5 12-17 8-21-2 2-11 5-13 8v6c-3 6-7 5-11 9-7 8-2 26-14 31-5 2-11-3-14-2-4 2-7 17-9 21-5 11-17 25-32 23-14-3-20-18-24-30-4-14-11-32-1-44 5-7 24-29 31-17 5 8-1 46 8 48zm47-46c-1-2-10 3-12 5-4 3-6 9-6 13-1 5 2 30 10 19 6-8-10-25 1-31 3-2 12 3 15-1 4-6-5-5-8-5zm-4-16c1 3 1 8 5 7-1-3-1-7-5-7z"/><path d="M202 442c7-3 15-8 21-2 5 6 3 23 1 29-2 7-7 9-14 10h-10c-3 1-6 4-10 3-7-3-6-11-6-17 0-9-3-15-5-24-3-14-1-29 5-42 7-13 18-24 33-28l16-4c5-1 16-6 21-5 9 2 8 13 11 21 3 12 7 16-6 18l-33 3c-9 1-16 4-23 12s-4 16-1 26zm11 30c1-7 8-32-6-20-4 2-6 6-8 9-4 4-9 5-6 13 9-8 9-7 20-2zM1277 82c-6 4-8 7-15 8 0-4 0-6 2-9 1-3 4-4 5-6 0-6-10-9-15-9-15-1-11 12-8 21-10-4-11-17-3-24 11-9 20 3 30 4 10 2 26-16 34-22 10-8 22-19 34-23-6 16-29 29-41 40-4 3-16 10-17 15-2 6 6 13 6 20 0 10-28 29-29 19 0-6 16-10 20-14 6-7 0-13-3-20zM1099 681c7-5 15-11 24-13 12-1 8 5 1 9-9 4-17 10-26 15-4 2-10 5-15 5-4 0-7-2-11-1-7 1-19 17-25 15-9-2 0-9 5-12 7-5 41-34 47-18zM898 92c0-5 0-10 3-14 2-5 7-6 10-10 6-7-6-24-6-33 0-8 4-26 14-28 14-3-5 17-6 20-3 11 5 22 8 32 3 11-6 14-11 23-3 5-4 10-1 15 2 4 11 9 5 13-10 8-16-12-16-18zM1145 683c6-4 15-12 22-7 11 10-10 14-15 16-10 2-17 1-26 4s-18 6-26 6c5-11 18-16 29-21 8-4 16-10 16 2zM377 429l37-38c6-6 8-8 16-7 6 2 9 2 12 8-13 6-21 10-31 20-12 11-18 16-34 17zM269 412c3-12 25 6 31 9 9 5 29 16 31 26-14 0-21 1-32-8l-30-27zM718 79c-8-5 1-17 5-21 7-7 15-9 24-12 8-2 8-4 13-11 2-3 15-23 22-13 3 6-8 8-12 12s-6 13-11 17c-7 5-17 3-24 7-9 5-13 13-17 21zM286 405c-8-4-11-12-14-20-2-6-14-26-10-31 2-3 8-3 11-2 4-2 6 0 5 5l1 8 7 40zM414 694c-5-1-25 0-28-5-3-6 3-17 9-17 5-1 25 7 28 11 11 11-9 8-9 11zM357 454c-12 7-19 10-33 11-14 0-23-2-35-8 2-4 67-5 68-3zM252 432c15 8 23 22 35 33-13 0-20-1-31-9-10-8-7-12-4-24z"/><path d="M1023 708c-12-9 8-12 15-16 9-4 21-17 31-18 17-1-4 13-9 16-12 7-24 13-37 18zM953 77c-3 6-6 9-12 13-3 1-7 2-8 5 0 3 4 3 4 5 3 14-15 1-14-8 1-10 16-6 19-16 1-3-2-14 4-15s6 13 7 16zM652 710c-13 0-1-7 4-10 9-5 19-19 31-18 14 1-1 10-5 13-9 5-19 16-30 15zM426 205c-9 15-25 34-40 43 3-12 25-52 40-43zM224 712c-1-4 0-11 4-13 6-4 6 1 10 2 11 1 22-11 33-6-5 6-16 8-23 12-8 4-16 2-24 5zM746 82c4-6 8-15 16-18 1 8-4 12-6 20-1 5 1 17-4 21-6 5-5-3-6-7l-8-16h8zM263 417l35 29c-11 4-17 0-25-7l-12-11c-4-5-2-5 2-11zM198 713c1-13 13-29 27-24-3 6-5 16-9 21s-12 3-18 3zM332 473c-5 12-16 8-26 8-13 0-19-1-28-9l54 1zM784 591c-6-3-12-7-20-8-7 0-10 3-16 7-6-12 10-16 19-15 7 1 30 10 17 16zM260 715c-4-2-5-2-8-6l19-7c5-2 18-12 24-8 8 5-29 19-35 21zM734 694c2-1 10-6 12-1 2 4-6 9-9 9l-6-2c-3 0-5 1-8 3-7 3-11 3-17 3 6-7 19-22 28-12zM328 432l27 4 12 2c3 0 6-2 10 0-6 8-18 9-27 7-5 0-24-7-22-13zM710 686c10 7-18 23-26 22-9-1-3-6 1-9 7-5 17-11 25-13zM322 710c-8-6 3-9 9-11 8-3 18-9 26-8-7 12-23 16-35 19zM384 667c-3 8-5 14-6 22-7-1-16 0-13-10 2-7 12-12 19-12zM613 576c8 2 15 7 23 9 4 1 18 1 11 7-9 7-30-9-34-16zM374 228c-3 8-6 18-12 24-7-8 4-35 12-24zM1189 687c5 4 7 5 2 10-1 1-15 6-17 5-13-5 11-13 15-15zM415 257c-3-3-5-3-3-8 1-2 15-8 17-8 14 2-10 14-14 16zM942 46l-4-5c3-2 15-16 19-10 5 6-10 16-15 15zM368 705c-9-6 4-13 11-13 18 0-6 11-11 13zM757 703l-7-5c3-3 11-11 16-8 6 4-6 11-9 13zM447 692c-2 3-22 16-20 6 1-7 16-9 20-6zM774 54c1-2 14-23 17-15 1 3-13 18-17 15zM165 702c-8 3-19 7-27 6 2-5 26-12 27-6zM651 696c-3 1-19 13-19 7-1-8 14-9 19-7zM461 701c-4-5-3-13 5-10 9 3 1 10-5 10zM632 610c-10 8-24-10 0 0zM491 361c2 3 8 15-2 11-6-3-1-8 2-11zM484 370c-7 7-9-4 0 0zM1062 247c-5 16-17 40-30 50-16 13-24-7-25-21 0-12 2-16 14-20l25-9c5-2 16-9 16 0zm-16 13c-7-2-15 1-21 4-10 3-11 14-6 23 9 14 23-22 27-27zM1034 235c4-3 10-10 11-1s-7 5-11 1zM711 244c16 0 11 9 4 20-4 8-14 34-23 17-3-6-3-13-8-18-3-3-9-5-9-11 1-13 36-4 36-8zm0 10c-2-3-21 0-25 1l12 21 13-22zM687 149c-4 0-12-6-9-10 4-6 4 2 9 2 3 0 3-8 7-4 5 3-2 14-7 12zM705 171c-5 2-5 3-9-1 4-3 4-2 9 1zM343 330c3-9 12-9 10 1 0 4-2 8-6 7-5 0-3-4-4-8zM321 332c1-6 8-12 10-3 1 2-1 7-3 8-4 2-4-2-7-5z"/></g></svg>
