<svg xmlns="http://www.w3.org/2000/svg" width="155" height="154" viewBox="0 0 154.67 153.96">
  <path fill="#070de9" d="M1 21.5c-3.6 20.3 3.3 49 19.4 77 16.2 28 37.6 48.3 57 55.5V0C45 0 16.6 8.4.8 21.5z"/>
  <path fill="#e9d100" d="M134.2 98.5c16.2-28 23-56.7 19.6-77C138 8.5 109.8 0 77.3 0v154c19.3-7.2 40.8-27.5 57-55.5z"/>
  <path fill="#FFF" d="M115.6 25.2c-4.6-1.3-9.4-2.3-14.4-3 0 2 0 4.3-.3 6.6-.4 5-1 10.3-1.7 15.5 3.2 1 6.2 2.3 8.5 3.7 0 3.2-.5 7-1.5 10.8-1.5 6.2-4.2 12.7-8 19C95 84 90.6 89.8 86 94.2c-3 2.8-6 5-8.7 6.6a44 44 0 0 1-8.6-6.6c-4.6-4.5-9-10-12.5-16.4-3.7-6.3-6.4-12.8-8-19-1-4-1.4-7.6-1.3-10.8 2.2-1.4 5-2.7 8.4-3.7-.7-5.2-1.3-10.5-1.7-15.5 0-2.4-.2-4.6-.3-6.7-5 1-9.8 2-14.3 3.2-7.2 2-13.6 4.7-18.7 7.8 0 6 .8 12.8 2.7 20.2 2.8 11.5 8 23.8 14.8 35.6 6.8 11.8 15 22.4 23.4 30.6 5.4 5.3 11 9.5 16 12.4 5.3-3 10.7-7 16.2-12.4 8.5-8.3 16.6-19 23.4-30.6 6.8-11.8 12-24 14.8-35.6 2-7.4 2.8-14.3 2.7-20.2-5-3-11.4-5.7-18.7-7.8z"/>
  <path fill="#EAEAEA" d="M77.3 100.8c-2.7-1.5-5.7-3.8-8.6-6.6-4.5-4.4-9-10-12.5-16.3-3.6-6.4-6.4-13-8-19.2-1-4-1.4-7.6-1.3-10.7 2.3-1.3 5-2.6 8.4-3.6-.7-5.2-1.3-10.5-1.6-15.6l-.4-6.7c-5 1-9.8 2-14.3 3.2-7.2 2-13.6 4.8-18.7 7.8 0 6 .8 12.8 2.7 20.2 3 11.5 8 23.8 14.8 35.6 6.8 11.8 15 22.4 23.4 30.6 5.4 5.3 11 9.5 16 12.4v-31z"/>
</svg>
