<svg xmlns="http://www.w3.org/2000/svg" width="512" height="512" viewBox="0 0 612 612">
  <path d="M598.221 531.586l-110.58-110.542c30.314-43.443 48.228-96.149 48.228-153.105C535.869 119.963 415.911.005 267.935.005S0 119.963 0 267.939s119.958 267.934 267.934 267.934c56.956 0 109.662-17.913 153.105-48.228l110.542 110.542c18.411 18.41 48.229 18.41 66.64 0 18.372-18.373 18.372-48.19 0-66.601zM267.934 459.32c-105.681 0-191.381-85.7-191.381-191.381S162.254 76.558 267.934 76.558c105.681 0 191.381 85.701 191.381 191.381 0 105.681-85.7 191.381-191.381 191.381z" fill="#1400ff"/>
</svg>